<?xml version="1.0" encoding="utf-8"?>
<!-- Generator: Adobe Illustrator 27.5.0, SVG Export Plug-In . SVG Version: 6.00 Build 0)  -->
<svg version="1.1" xmlns="http://www.w3.org/2000/svg" xmlns:xlink="http://www.w3.org/1999/xlink" x="0px" y="0px"
	 viewBox="0 0 500 500" style="enable-background:new 0 0 500 500;" xml:space="preserve">
<g id="BACKGROUND">
	<rect style="fill:#B2BDD4;" width="500" height="500"/>
</g>
<g id="OBJECTS">
	<g>
		<g>
			<g>
				<g>
					<path style="fill:#DEE5F2;" d="M45.521,347.35c-0.8,0-1.449-0.648-1.449-1.449v-5.6c0-0.8,0.649-1.449,1.449-1.449
						s1.449,0.648,1.449,1.449v5.6C46.97,346.702,46.321,347.35,45.521,347.35z"/>
				</g>
				<g>
					<path style="fill:#DEE5F2;" d="M45.521,361.436c-0.8,0-1.449-0.648-1.449-1.449v-5.6c0-0.8,0.649-1.449,1.449-1.449
						s1.449,0.648,1.449,1.449v5.6C46.97,360.787,46.321,361.436,45.521,361.436z"/>
				</g>
				<g>
					<path style="fill:#DEE5F2;" d="M45.521,375.52c-0.8,0-1.449-0.648-1.449-1.449v-5.6c0-0.8,0.649-1.449,1.449-1.449
						s1.449,0.648,1.449,1.449v5.6C46.97,374.871,46.321,375.52,45.521,375.52z"/>
				</g>
				<g>
					<path style="fill:#DEE5F2;" d="M45.521,389.605c-0.8,0-1.449-0.648-1.449-1.449v-5.6c0-0.8,0.649-1.449,1.449-1.449
						s1.449,0.648,1.449,1.449v5.6C46.97,388.957,46.321,389.605,45.521,389.605z"/>
				</g>
				<g>
					<path style="fill:#DEE5F2;" d="M45.521,403.69c-0.8,0-1.449-0.648-1.449-1.449v-5.6c0-0.8,0.649-1.449,1.449-1.449
						s1.449,0.648,1.449,1.449v5.6C46.97,403.042,46.321,403.69,45.521,403.69z"/>
				</g>
				<g>
					<path style="fill:#DEE5F2;" d="M45.521,417.775c-0.8,0-1.449-0.648-1.449-1.449v-5.6c0-0.8,0.649-1.449,1.449-1.449
						s1.449,0.648,1.449,1.449v5.6C46.97,417.127,46.321,417.775,45.521,417.775z"/>
				</g>
				<g>
					<path style="fill:#DEE5F2;" d="M45.521,431.86c-0.8,0-1.449-0.648-1.449-1.449v-5.6c0-0.8,0.649-1.449,1.449-1.449
						s1.449,0.648,1.449,1.449v5.6C46.97,431.212,46.321,431.86,45.521,431.86z"/>
				</g>
			</g>
			<g>
				<g>
					<path style="fill:#DEE5F2;" d="M58.825,354.393c-0.8,0-1.449-0.648-1.449-1.449v-5.6c0-0.8,0.649-1.449,1.449-1.449
						c0.8,0,1.449,0.648,1.449,1.449v5.6C60.273,353.745,59.625,354.393,58.825,354.393z"/>
				</g>
				<g>
					<path style="fill:#DEE5F2;" d="M58.825,368.478c-0.8,0-1.449-0.648-1.449-1.449v-5.6c0-0.8,0.649-1.449,1.449-1.449
						c0.8,0,1.449,0.648,1.449,1.449v5.6C60.273,367.83,59.625,368.478,58.825,368.478z"/>
				</g>
				<g>
					<path style="fill:#DEE5F2;" d="M58.825,382.562c-0.8,0-1.449-0.648-1.449-1.449v-5.6c0-0.8,0.649-1.449,1.449-1.449
						c0.8,0,1.449,0.648,1.449,1.449v5.6C60.273,381.914,59.625,382.562,58.825,382.562z"/>
				</g>
				<g>
					<path style="fill:#DEE5F2;" d="M58.825,396.647c-0.8,0-1.449-0.648-1.449-1.449v-5.6c0-0.8,0.649-1.449,1.449-1.449
						c0.8,0,1.449,0.648,1.449,1.449v5.6C60.273,395.999,59.625,396.647,58.825,396.647z"/>
				</g>
				<g>
					<path style="fill:#DEE5F2;" d="M58.825,410.733c-0.8,0-1.449-0.648-1.449-1.449v-5.6c0-0.8,0.649-1.449,1.449-1.449
						c0.8,0,1.449,0.648,1.449,1.449v5.6C60.273,410.084,59.625,410.733,58.825,410.733z"/>
				</g>
				<g>
					<path style="fill:#DEE5F2;" d="M58.825,424.818c-0.8,0-1.449-0.648-1.449-1.449v-5.6c0-0.8,0.649-1.449,1.449-1.449
						c0.8,0,1.449,0.648,1.449,1.449v5.6C60.273,424.169,59.625,424.818,58.825,424.818z"/>
				</g>
			</g>
			<g>
				<g>
					<path style="fill:#DEE5F2;" d="M72.128,347.35c-0.8,0-1.449-0.648-1.449-1.449v-5.6c0-0.8,0.649-1.449,1.449-1.449
						c0.8,0,1.449,0.648,1.449,1.449v5.6C73.577,346.702,72.928,347.35,72.128,347.35z"/>
				</g>
				<g>
					<path style="fill:#DEE5F2;" d="M72.128,361.436c-0.8,0-1.449-0.648-1.449-1.449v-5.6c0-0.8,0.649-1.449,1.449-1.449
						c0.8,0,1.449,0.648,1.449,1.449v5.6C73.577,360.787,72.928,361.436,72.128,361.436z"/>
				</g>
				<g>
					<path style="fill:#DEE5F2;" d="M72.128,375.52c-0.8,0-1.449-0.648-1.449-1.449v-5.6c0-0.8,0.649-1.449,1.449-1.449
						c0.8,0,1.449,0.648,1.449,1.449v5.6C73.577,374.871,72.928,375.52,72.128,375.52z"/>
				</g>
				<g>
					<path style="fill:#DEE5F2;" d="M72.128,389.605c-0.8,0-1.449-0.648-1.449-1.449v-5.6c0-0.8,0.649-1.449,1.449-1.449
						c0.8,0,1.449,0.648,1.449,1.449v5.6C73.577,388.957,72.928,389.605,72.128,389.605z"/>
				</g>
				<g>
					<path style="fill:#DEE5F2;" d="M72.128,403.69c-0.8,0-1.449-0.648-1.449-1.449v-5.6c0-0.8,0.649-1.449,1.449-1.449
						c0.8,0,1.449,0.648,1.449,1.449v5.6C73.577,403.042,72.928,403.69,72.128,403.69z"/>
				</g>
				<g>
					<path style="fill:#DEE5F2;" d="M72.128,417.775c-0.8,0-1.449-0.648-1.449-1.449v-5.6c0-0.8,0.649-1.449,1.449-1.449
						c0.8,0,1.449,0.648,1.449,1.449v5.6C73.577,417.127,72.928,417.775,72.128,417.775z"/>
				</g>
				<g>
					<path style="fill:#DEE5F2;" d="M72.128,431.86c-0.8,0-1.449-0.648-1.449-1.449v-5.6c0-0.8,0.649-1.449,1.449-1.449
						c0.8,0,1.449,0.648,1.449,1.449v5.6C73.577,431.212,72.928,431.86,72.128,431.86z"/>
				</g>
			</g>
			<g>
				<g>
					<path style="fill:#DEE5F2;" d="M85.432,354.393c-0.8,0-1.449-0.648-1.449-1.449v-5.6c0-0.8,0.649-1.449,1.449-1.449
						c0.8,0,1.449,0.648,1.449,1.449v5.6C86.88,353.745,86.231,354.393,85.432,354.393z"/>
				</g>
				<g>
					<path style="fill:#DEE5F2;" d="M85.432,368.478c-0.8,0-1.449-0.648-1.449-1.449v-5.6c0-0.8,0.649-1.449,1.449-1.449
						c0.8,0,1.449,0.648,1.449,1.449v5.6C86.88,367.83,86.231,368.478,85.432,368.478z"/>
				</g>
				<g>
					<path style="fill:#DEE5F2;" d="M85.432,382.562c-0.8,0-1.449-0.648-1.449-1.449v-5.6c0-0.8,0.649-1.449,1.449-1.449
						c0.8,0,1.449,0.648,1.449,1.449v5.6C86.88,381.914,86.231,382.562,85.432,382.562z"/>
				</g>
				<g>
					<path style="fill:#DEE5F2;" d="M85.432,396.647c-0.8,0-1.449-0.648-1.449-1.449v-5.6c0-0.8,0.649-1.449,1.449-1.449
						c0.8,0,1.449,0.648,1.449,1.449v5.6C86.88,395.999,86.231,396.647,85.432,396.647z"/>
				</g>
				<g>
					<path style="fill:#DEE5F2;" d="M85.432,410.733c-0.8,0-1.449-0.648-1.449-1.449v-5.6c0-0.8,0.649-1.449,1.449-1.449
						c0.8,0,1.449,0.648,1.449,1.449v5.6C86.88,410.084,86.231,410.733,85.432,410.733z"/>
				</g>
				<g>
					<path style="fill:#DEE5F2;" d="M85.432,424.818c-0.8,0-1.449-0.648-1.449-1.449v-5.6c0-0.8,0.649-1.449,1.449-1.449
						c0.8,0,1.449,0.648,1.449,1.449v5.6C86.88,424.169,86.231,424.818,85.432,424.818z"/>
				</g>
			</g>
			<g>
				<g>
					<path style="fill:#DEE5F2;" d="M98.735,347.35c-0.8,0-1.449-0.648-1.449-1.449v-5.6c0-0.8,0.649-1.449,1.449-1.449
						c0.8,0,1.449,0.648,1.449,1.449v5.6C100.184,346.702,99.535,347.35,98.735,347.35z"/>
				</g>
				<g>
					<path style="fill:#DEE5F2;" d="M98.735,361.436c-0.8,0-1.449-0.648-1.449-1.449v-5.6c0-0.8,0.649-1.449,1.449-1.449
						c0.8,0,1.449,0.648,1.449,1.449v5.6C100.184,360.787,99.535,361.436,98.735,361.436z"/>
				</g>
				<g>
					<path style="fill:#DEE5F2;" d="M98.735,375.52c-0.8,0-1.449-0.648-1.449-1.449v-5.6c0-0.8,0.649-1.449,1.449-1.449
						c0.8,0,1.449,0.648,1.449,1.449v5.6C100.184,374.871,99.535,375.52,98.735,375.52z"/>
				</g>
				<g>
					<path style="fill:#DEE5F2;" d="M98.735,389.605c-0.8,0-1.449-0.648-1.449-1.449v-5.6c0-0.8,0.649-1.449,1.449-1.449
						c0.8,0,1.449,0.648,1.449,1.449v5.6C100.184,388.957,99.535,389.605,98.735,389.605z"/>
				</g>
				<g>
					<path style="fill:#DEE5F2;" d="M98.735,403.69c-0.8,0-1.449-0.648-1.449-1.449v-5.6c0-0.8,0.649-1.449,1.449-1.449
						c0.8,0,1.449,0.648,1.449,1.449v5.6C100.184,403.042,99.535,403.69,98.735,403.69z"/>
				</g>
				<g>
					<path style="fill:#DEE5F2;" d="M98.735,417.775c-0.8,0-1.449-0.648-1.449-1.449v-5.6c0-0.8,0.649-1.449,1.449-1.449
						c0.8,0,1.449,0.648,1.449,1.449v5.6C100.184,417.127,99.535,417.775,98.735,417.775z"/>
				</g>
				<g>
					<path style="fill:#DEE5F2;" d="M98.735,431.86c-0.8,0-1.449-0.648-1.449-1.449v-5.6c0-0.8,0.649-1.449,1.449-1.449
						c0.8,0,1.449,0.648,1.449,1.449v5.6C100.184,431.212,99.535,431.86,98.735,431.86z"/>
				</g>
			</g>
			<g>
				<g>
					<path style="fill:#DEE5F2;" d="M125.342,347.35c-0.8,0-1.449-0.648-1.449-1.449v-5.6c0-0.8,0.649-1.449,1.449-1.449
						s1.449,0.648,1.449,1.449v5.6C126.79,346.702,126.142,347.35,125.342,347.35z"/>
				</g>
				<g>
					<path style="fill:#DEE5F2;" d="M125.342,361.436c-0.8,0-1.449-0.648-1.449-1.449v-5.6c0-0.8,0.649-1.449,1.449-1.449
						s1.449,0.648,1.449,1.449v5.6C126.79,360.787,126.142,361.436,125.342,361.436z"/>
				</g>
				<g>
					<path style="fill:#DEE5F2;" d="M125.342,375.52c-0.8,0-1.449-0.648-1.449-1.449v-5.6c0-0.8,0.649-1.449,1.449-1.449
						s1.449,0.648,1.449,1.449v5.6C126.79,374.871,126.142,375.52,125.342,375.52z"/>
				</g>
				<g>
					<path style="fill:#DEE5F2;" d="M125.342,389.605c-0.8,0-1.449-0.648-1.449-1.449v-5.6c0-0.8,0.649-1.449,1.449-1.449
						s1.449,0.648,1.449,1.449v5.6C126.79,388.957,126.142,389.605,125.342,389.605z"/>
				</g>
				<g>
					<path style="fill:#DEE5F2;" d="M125.342,403.69c-0.8,0-1.449-0.648-1.449-1.449v-5.6c0-0.8,0.649-1.449,1.449-1.449
						s1.449,0.648,1.449,1.449v5.6C126.79,403.042,126.142,403.69,125.342,403.69z"/>
				</g>
				<g>
					<path style="fill:#DEE5F2;" d="M125.342,417.775c-0.8,0-1.449-0.648-1.449-1.449v-5.6c0-0.8,0.649-1.449,1.449-1.449
						s1.449,0.648,1.449,1.449v5.6C126.79,417.127,126.142,417.775,125.342,417.775z"/>
				</g>
				<g>
					<path style="fill:#DEE5F2;" d="M125.342,431.86c-0.8,0-1.449-0.648-1.449-1.449v-5.6c0-0.8,0.649-1.449,1.449-1.449
						s1.449,0.648,1.449,1.449v5.6C126.79,431.212,126.142,431.86,125.342,431.86z"/>
				</g>
			</g>
			<g>
				<g>
					<path style="fill:#DEE5F2;" d="M112.038,354.393c-0.8,0-1.449-0.648-1.449-1.449v-5.6c0-0.8,0.649-1.449,1.449-1.449
						c0.8,0,1.449,0.648,1.449,1.449v5.6C113.487,353.745,112.838,354.393,112.038,354.393z"/>
				</g>
				<g>
					<path style="fill:#DEE5F2;" d="M112.038,368.478c-0.8,0-1.449-0.648-1.449-1.449v-5.6c0-0.8,0.649-1.449,1.449-1.449
						c0.8,0,1.449,0.648,1.449,1.449v5.6C113.487,367.83,112.838,368.478,112.038,368.478z"/>
				</g>
				<g>
					<path style="fill:#DEE5F2;" d="M112.038,382.562c-0.8,0-1.449-0.648-1.449-1.449v-5.6c0-0.8,0.649-1.449,1.449-1.449
						c0.8,0,1.449,0.648,1.449,1.449v5.6C113.487,381.914,112.838,382.562,112.038,382.562z"/>
				</g>
				<g>
					<path style="fill:#DEE5F2;" d="M112.038,396.647c-0.8,0-1.449-0.648-1.449-1.449v-5.6c0-0.8,0.649-1.449,1.449-1.449
						c0.8,0,1.449,0.648,1.449,1.449v5.6C113.487,395.999,112.838,396.647,112.038,396.647z"/>
				</g>
				<g>
					<path style="fill:#DEE5F2;" d="M112.038,410.733c-0.8,0-1.449-0.648-1.449-1.449v-5.6c0-0.8,0.649-1.449,1.449-1.449
						c0.8,0,1.449,0.648,1.449,1.449v5.6C113.487,410.084,112.838,410.733,112.038,410.733z"/>
				</g>
				<g>
					<path style="fill:#DEE5F2;" d="M112.038,424.818c-0.8,0-1.449-0.648-1.449-1.449v-5.6c0-0.8,0.649-1.449,1.449-1.449
						c0.8,0,1.449,0.648,1.449,1.449v5.6C113.487,424.169,112.838,424.818,112.038,424.818z"/>
				</g>
			</g>
		</g>
		<path style="fill:#DEE5F2;" d="M38.95,302.82c0.597-8.889,9.628-15.953,20.715-15.953c0.342,0,0.675,0.028,1.013,0.042
			c4.69-6.647,12.424-10.992,21.178-10.992c11.225,0,20.78,7.14,24.379,17.124c1.489-0.331,3.045-0.525,4.659-0.525
			c7.6,0,14.097,3.922,16.792,9.478c7.387,0.269,13.297,6.326,13.297,13.779c0,7.624-6.18,13.805-13.804,13.805H43.686
			c-7.624,0-13.804-6.181-13.804-13.805C29.881,309.815,33.662,304.755,38.95,302.82z"/>
	</g>
	<g>
		<path style="fill:#FFFFFF;" d="M174.744,197.544h-56.286c-3.062,0-5.545,2.482-5.545,5.545v21.302
			c0,3.062,2.482,5.545,5.545,5.545h16.713c0.971,0,1.864,0.536,2.32,1.393l7.476,14.026c0.697,1.307,2.57,1.307,3.267,0
			l7.476-14.026c0.457-0.857,1.349-1.393,2.32-1.393h16.713c3.062,0,5.545-2.482,5.545-5.545v-21.302
			C180.289,200.027,177.806,197.544,174.744,197.544z"/>
		<g>
			<path style="fill:#4291C9;" d="M124.586,217.867v-6.807h2.878c0.469,0,0.871,0.079,1.206,0.238
				c0.335,0.158,0.591,0.385,0.768,0.681c0.177,0.296,0.265,0.653,0.265,1.074c0,0.298-0.082,0.583-0.247,0.854
				c-0.165,0.271-0.436,0.498-0.813,0.68v-0.694c0.359,0.14,0.637,0.308,0.831,0.503c0.195,0.195,0.329,0.406,0.402,0.635
				c0.073,0.228,0.11,0.468,0.11,0.717c0,0.67-0.222,1.191-0.667,1.563c-0.445,0.371-1.063,0.557-1.855,0.557H124.586z
				 M126.002,213.619h1.563c0.219,0,0.394-0.063,0.525-0.187c0.131-0.125,0.196-0.291,0.196-0.498c0-0.207-0.065-0.373-0.196-0.498
				c-0.131-0.125-0.306-0.187-0.525-0.187h-1.563V213.619z M126.002,216.634h1.626c0.286,0,0.515-0.082,0.685-0.247
				c0.171-0.165,0.256-0.378,0.256-0.64c0-0.268-0.085-0.484-0.256-0.649c-0.171-0.165-0.399-0.247-0.685-0.247h-1.626V216.634z"/>
			<path style="fill:#4291C9;" d="M130.89,217.867v-6.807h2.604c0.469,0,0.884,0.082,1.247,0.247
				c0.362,0.165,0.647,0.408,0.854,0.731c0.207,0.323,0.311,0.722,0.311,1.197c0,0.463-0.107,0.857-0.32,1.183
				c-0.214,0.326-0.5,0.571-0.859,0.735l1.553,2.714h-1.59l-1.681-3.006l0.913,0.539h-1.617v2.467H130.89z M132.306,214.167h1.197
				c0.201,0,0.375-0.04,0.521-0.119c0.146-0.079,0.26-0.189,0.342-0.329c0.083-0.14,0.124-0.301,0.124-0.484
				c0-0.189-0.041-0.353-0.124-0.494c-0.082-0.14-0.196-0.25-0.342-0.329c-0.146-0.079-0.32-0.119-0.521-0.119h-1.197V214.167z"/>
			<path style="fill:#4291C9;" d="M136.984,217.867v-6.807h4.578v1.234h-3.161v1.544h2.979v1.234h-2.979v1.562h3.161v1.234H136.984z
				"/>
			<path style="fill:#4291C9;" d="M141.864,217.867l2.302-6.807h1.882l2.303,6.807h-1.544l-0.457-1.389h-2.494l-0.457,1.389H141.864
				z M144.248,215.245h1.709l-1.042-3.216h0.384L144.248,215.245z"/>
			<path style="fill:#4291C9;" d="M149.054,217.867v-6.807h1.416v3.409l-0.393-0.137l2.723-3.271h1.772l-2.695,3.253l0.083-1.005
				l2.668,4.559h-1.654l-1.663-2.878l-0.841,1.014v1.864H149.054z"/>
			<path style="fill:#4291C9;" d="M159.681,217.977c-0.536,0-1.014-0.112-1.434-0.338c-0.42-0.226-0.751-0.535-0.991-0.927
				c-0.241-0.393-0.361-0.839-0.361-1.338v-4.313h1.416v4.221c0,0.268,0.06,0.51,0.178,0.727c0.119,0.216,0.282,0.385,0.489,0.507
				c0.207,0.122,0.441,0.183,0.703,0.183c0.268,0,0.504-0.061,0.708-0.183c0.204-0.122,0.365-0.291,0.484-0.507
				c0.119-0.216,0.178-0.458,0.178-0.727v-4.221h1.416v4.313c0,0.499-0.12,0.945-0.361,1.338c-0.241,0.393-0.571,0.702-0.991,0.927
				C160.695,217.865,160.216,217.977,159.681,217.977z"/>
			<path style="fill:#4291C9;" d="M163.591,217.867v-6.807h2.613c0.469,0,0.885,0.082,1.248,0.247
				c0.362,0.165,0.647,0.408,0.854,0.731c0.207,0.323,0.31,0.722,0.31,1.197c0,0.463-0.105,0.856-0.315,1.179
				s-0.497,0.568-0.859,0.735c-0.363,0.168-0.775,0.251-1.238,0.251h-1.197v2.467H163.591z M165.008,214.167h1.206
				c0.201,0,0.375-0.04,0.521-0.119c0.146-0.079,0.26-0.189,0.342-0.329c0.082-0.14,0.123-0.301,0.123-0.484
				c0-0.189-0.041-0.353-0.123-0.494c-0.083-0.14-0.197-0.25-0.342-0.329c-0.146-0.079-0.32-0.119-0.521-0.119h-1.206V214.167z"/>
		</g>
	</g>
	<g>
		<path style="fill:#33541D;" d="M386.99,412.31c19.723,0,41.306-16.457,26.049-38.929c11.536-11.029,12.28-33.636-4.838-42.567
			c10.42-11.536-7.07-20.839-7.07-20.839s-4.093-68.471-56.191-89.31c6.698-49.121-62.889-72.192-103.451,2.605
			c-15.257,5.582-56.563,32.003-72.192,57.68L386.99,412.31z"/>
		<path style="fill:#211D16;" d="M174.933,272.975l45.108,12.661c0,0,33.174-14.854,31.379-17.056
			c-1.795-2.202-15.896-6.477-31.379-5.309c-15.477,1.168-21.063-12.34-14.139-18.966
			C194.53,252.697,183.106,262.715,174.933,272.975z"/>
		<path style="fill:#1266A3;" d="M184.466,421.846l35.575-147.461c-9.975-5.044-21.084-7.763-32.49-7.763l0,0
			c-16.235-0.003-30.839,10.42-35.407,25.796c-6.925,23.31-16.427,69.857-19.631,87.04c-0.642,3.445-2.961,6.336-6.182,7.716
			c-5.674,2.432-8.131,9.138-5.37,14.66c1.575,3.15,0.654,6.977-2.183,9.065v0c-8.136,5.989-9.332,17.688-2.577,25.2l19.766,21.982
			c0,0,27.91,0,38.236,0c10.326,0,8.523-12.559,8.523-12.559s5.711-3.628,0-16.467L184.466,421.846z"/>
		<path style="fill:#211D16;" d="M179.286,314.826c0,0,1.161,9.03-8.519,15.038c-1.669,13.185-15.194,26.473-33.069,23.563
			l4.53-24.564L179.286,314.826z"/>
		<path style="fill:#211D16;" d="M220.041,274.386c-2.045-1.034-4.14-1.965-6.274-2.8c-8.506,3.94-15.396,11.002-18.736,20.107
			c-8.374,22.83-20.78,68.689-25.055,85.636c-0.857,3.398-3.353,6.137-6.654,7.313c-5.815,2.071-8.688,8.61-6.279,14.294
			c1.374,3.243,0.214,7.005-2.748,8.91v0c-8.495,5.466-10.424,17.067-4.154,24.988l18.348,23.179c0,0,4.568,0.287,10.687,0.672
			c4.679-3.27,3.552-11.162,3.552-11.162s5.711-3.628,0-16.467l1.739-7.209L220.041,274.386z"/>
		<path style="fill:#D46F4B;" d="M271.631,217.502l13.66,7.282c9.621,5.129,12.163,17.767,5.274,26.217v0
			c-7.316,8.973-20.705,9.864-29.145,1.939l-4.302-4.039L271.631,217.502z"/>
		<path style="fill:#211D16;" d="M261.42,252.94c3.7,3.474,8.35,5.253,13.024,5.401c1.136-2.124,2.017-4.366,2.678-6.607
			c2.153-7.301,1.752-15.118-0.765-22.301l-4.057-11.574l-0.668-0.356L257.118,248.9L261.42,252.94z"/>
		<g>
			
				<path style="fill:none;stroke:#1D3011;stroke-width:1.7802;stroke-linecap:round;stroke-linejoin:round;stroke-miterlimit:10;" d="
				M297.866,194.245c26.235-1.302,11.35,49.493-18.606,66.578"/>
			
				<path style="fill:none;stroke:#1D3011;stroke-width:1.7802;stroke-linecap:round;stroke-linejoin:round;stroke-miterlimit:10;" d="
				M280.004,271.647c0,0,13.721-4.955,23.954-13.295"/>
			
				<path style="fill:none;stroke:#1D3011;stroke-width:1.7802;stroke-linecap:round;stroke-linejoin:round;stroke-miterlimit:10;" d="
				M266.794,267.739c0,0-8.001-4.28-12.094-11.35"/>
		</g>
		<g>
			
				<path style="fill:none;stroke:#1D3011;stroke-width:1.7802;stroke-linecap:round;stroke-linejoin:round;stroke-miterlimit:10;" d="
				M341.684,371.004c26.514-14.792,48.562-11.722,64.75-1.395"/>
			
				<path style="fill:none;stroke:#1D3011;stroke-width:1.7802;stroke-linecap:round;stroke-linejoin:round;stroke-miterlimit:10;" d="
				M339.451,368.426c0,0,21.769-21.55,48.283-23.301"/>
			
				<path style="fill:none;stroke:#1D3011;stroke-width:1.7802;stroke-linecap:round;stroke-linejoin:round;stroke-miterlimit:10;" d="
				M370.431,328.861c0,0-26.793,21.364-54.702,16.264"/>
			
				<path style="fill:none;stroke:#1D3011;stroke-width:1.7802;stroke-linecap:round;stroke-linejoin:round;stroke-miterlimit:10;" d="
				M369.686,297.323c0,0-8.187,18.048-22.141,17.49"/>
		</g>
		<path style="fill:#211D16;" d="M370.431,376.082c21.811,4.853,36.164,16.322,34.328,26.026s-22.698,10.203-22.698,10.203
			L370.431,376.082z"/>
		<path style="fill:#211D16;" d="M357.386,266.234c0,0,12.301,42.479-17.935,97.844c-14.82,27.137-28.023-16.857-28.023-16.857
			L357.386,266.234z"/>
		<path style="fill:#1266A3;" d="M198.674,294.719L198.674,294.719c4.169-16.52,19.03-28.096,36.068-28.096h0
			c19.729,0,38.592,8.087,52.18,22.39c17.204,18.109,39.737,50.028,63.972,83.665c20.564,2.491,50.139,7.912,43.463,31.651
			l-3.17,14.63c-4.947,22.831-25.145,39.122-48.506,39.122h-62.826c-15.881,0-30.643-8.177-39.067-21.641L214.297,394.1
			C195.768,364.485,190.125,328.591,198.674,294.719z"/>
		<path style="fill:#211D16;" d="M327.819,365.94c0,0-6.259,19.417-24.284,22.171c-10.515,13.769-22.435,17.775-38.881,13.018
			c-11.94,22.031-32.997,20.717-32.997,20.717l-6.981-37.741L327.819,365.94z"/>
		<path style="fill:#1266A3;" d="M199.335,292.419l59.737,15.789l-29.155,120.848c5.711,12.838,0,16.466,0,16.466
			s1.803,12.559-8.523,12.559c-10.327,0-38.236,0-38.236,0L163.392,436.1c-6.755-7.512-5.558-19.211,2.577-25.2h0
			c2.837-2.088,3.758-5.915,2.183-9.065l0,0c-2.761-5.521-0.304-12.228,5.37-14.66l0,0c3.221-1.38,5.54-4.271,6.182-7.716
			C182.843,362.629,192.566,314.627,199.335,292.419z"/>
		
			<path style="fill:none;stroke:#4291C9;stroke-width:1.7802;stroke-linecap:round;stroke-linejoin:round;stroke-miterlimit:10;" d="
			M375.718,381.853l-3.004,1.752c2.003,3.672,2.337,8.679-3.028,7.787c-1.359,11.459-14.663,11.573-22.141,2.509
			c-7.478-9.064-41.269-49.143-50.603-62.034c-9.334-12.892-23.366-25.702-30.149-27.705c1.562,5.341-3.899,5.288-7.722,1.913
			c-2.423,5.198-7.036,0.924-7.036,0.924l-31.995,114.863c6.512,4.678,9.016,15.318,3.883,19.073
			c2.378,4.006-0.25,11.892-2.503,13.143"/>
		<path style="fill:#211D16;" d="M210.754,433.475c-6.496-3.117-11.114-2.888-15.501-9.438v34.044h20.036
			c3.002,0,5.586-2.197,5.997-5.17C222.443,444.53,218.484,437.184,210.754,433.475z"/>
		<path style="fill:#D46F4B;" d="M210.819,363.34l-17.98-16.799c-1.529-1.428-3.942-1.281-5.285,0.323l0,0
			c-1.152,1.375-1.133,3.383,0.044,4.736l5.697,6.549l-9.643-2.385c-4.269-1.056-7.841,3.482-5.699,7.323
			c0.026,0.047,0.053,0.094,0.081,0.141c-3.064,1.611-5.119,5.325-2.417,8.911c-2.316,1.557-3.229,4.863-1.832,7.544
			c-2.457,1.55-3.577,6.988,2.316,8.318c2.578,0.582,7.172,1.499,11.524,2.348c7.024,1.369,14.281,0.881,21.057-1.421l0,0
			L210.819,363.34z"/>
		<path style="fill:#FCB442;" d="M225.688,391.392h-12.911c-1.868,0-3.622-0.917-4.684-2.454c-5.489-7.945-5.489-18.513,0-26.458
			c1.062-1.537,2.816-2.454,4.684-2.454h12.911C217.598,368.916,217.598,382.501,225.688,391.392z"/>
		<path style="fill:#33541D;" d="M180.063,297.648c-3.706-14.096-16.922-22.838-29.519-19.526c-2.643,0.695-5.046,1.871-7.163,3.417
			c-3.181-0.287-6.442-0.048-9.678,0.803c-15.955,4.195-25.248,21.443-20.757,38.524c4.491,17.081,21.065,27.528,37.02,23.333
			c9.035-2.375,15.93-8.938,19.399-17.285C178.517,321.519,183.2,309.579,180.063,297.648z"/>
		
			<line style="fill:none;stroke:#211D16;stroke-width:1.7802;stroke-linecap:round;stroke-linejoin:round;stroke-miterlimit:10;" x1="255.694" y1="391.204" x2="280.812" y2="424.869"/>
		<g>
			<path style="fill:#4291C9;" d="M334.761,458.082h7.92c13.465,0,25.873-5.42,34.922-14.378l-7.269-5.162
				c-6.368-4.522-14.487-5.799-21.943-3.473c-6.027,1.88-11.831,3.438-17.414,4.713c-3.82,0.872-5.528,5.334-3.242,8.517
				L334.761,458.082z"/>
			<path style="fill:#4291C9;" d="M264.37,445.665c-1.035-2.371-3.133-4.094-5.647-4.704c-7.75-1.882-14.175-4.273-19.261-6.64
				l1.326,2.12c6.503,10.394,16.791,17.618,28.449,20.38L264.37,445.665z"/>
		</g>
		<path style="fill:#D46F4B;" d="M210.603,214.898c4.942,9.919,10.3,18.72,16.716,24.666c1.31,1.214,2.31,2.748,2.693,4.493
			c2.727,12.428,13.972,19.735,29.061,15.609c9.467-2.589,14.281-10.397,16.565-18.142c2.153-7.301,1.753-15.118-0.765-22.301
			l-10.124-28.884L210.603,214.898z"/>
		<path style="fill:#D44D4B;" d="M269.395,234.987c0,3.183-2.58,5.763-5.763,5.763s-5.763-2.58-5.763-5.763s2.58-5.763,5.763-5.763
			S269.395,231.805,269.395,234.987z"/>
		<path style="fill:#4F1D05;" d="M267.724,216.526c6.974,1.525,6.14-9.489,6.14-9.489s6.28-0.837,11.164-6.698
			c4.884-5.861,0.139-10.885-3.349-11.164c4.186-6.559-0.419-16.885-9.489-15.49c1.674-12.141-13.677-18.42-21.63-10.466
			c-6.419-7.675-19.815-7.117-23.164,3.907c-7.815-5.861-19.816,1.395-19.258,14.792c-15.211-0.279-17.164,18.56-9.07,24.002
			c-8.652,9.908-2.372,20.792,10.326,20.653c1.962,3.242,7.47,6.17,11.455,7.957c1.492,0.669,2.982-0.941,2.211-2.383l-6.41-11.993
			c0,0,6.559,3.349,9.629-9.908c7.954,1.396,13.17-0.698,17.539-9.07c5.486,5.303,13.859,6.001,17.766,1.674
			C262.979,208.571,263.258,215.549,267.724,216.526z"/>
		
			<path style="fill:none;stroke:#1D3011;stroke-width:1.7802;stroke-linecap:round;stroke-linejoin:round;stroke-miterlimit:10;" d="
			M344.94,220.665c-0.744,6.512-3.207,13.371-5.396,17.118"/>
		<path style="fill:#D46F4B;" d="M272.947,213.731c0,0-1.734-8.648,1.476-13.672c3.21-5.024,10.52-2.774,11.722,3.07
			c0.974,4.739,1.841,22.451-10.354,19.103L272.947,213.731z"/>
		
			<path style="fill:none;stroke:#9C4426;stroke-width:1.7802;stroke-linecap:round;stroke-linejoin:round;stroke-miterlimit:10;" d="
			M282.973,209.965c0.542-6.162-0.516-9.549-3.713-9.413c-2.022,0.086-2.64,4.779-2.821,8.216c-0.097,1.833,0.861,3.546,2.444,4.474
			c1.024,0.601,1.945,1.566,1.819,3.073c-0.271,3.252-4.334,3.21-4.334,3.21"/>
		
			<path style="fill:none;stroke:#9C4426;stroke-width:1.7802;stroke-linecap:round;stroke-linejoin:round;stroke-miterlimit:10;" d="
			M280.423,208.502c0,0-0.801-4.076-3.261-5.108"/>
		<path style="fill:#211D16;" d="M237.65,233.243c0,1.541-1.249,2.791-2.791,2.791s-2.791-1.25-2.791-2.791s1.25-2.791,2.791-2.791
			S237.65,231.702,237.65,233.243z"/>
		<circle style="fill:#211D16;" cx="251.909" cy="224.73" r="2.791"/>
		<path style="fill:#4F1D05;" d="M243.995,218.835c-1.666-3.33,12.058-7.234,13.123-4.539
			C258.386,217.502,245.477,221.795,243.995,218.835z"/>
		<path style="fill:#4F1D05;" d="M233.657,223.503c2.069,2.17-7.255,8.918-9.007,7.396
			C222.899,229.376,231.526,221.268,233.657,223.503z"/>
		
			<path style="fill:none;stroke:#9C4426;stroke-width:1.7802;stroke-linecap:round;stroke-linejoin:round;stroke-miterlimit:10;" d="
			M240.744,227.118l1.601,1.556c1.818,1.767,2.502,4.399,1.775,6.828l-1.27,4.239c-0.35,1.17,0.896,2.175,1.965,1.585l5.048-2.785"
			/>
		
			<path style="fill:none;stroke:#9C4426;stroke-width:1.7802;stroke-linecap:round;stroke-linejoin:round;stroke-miterlimit:10;" d="
			M247.722,246.156c1.488-2.884,5.46-6.01,12.434-4.151"/>
		
			<path style="fill:none;stroke:#9C4426;stroke-width:1.7802;stroke-linecap:round;stroke-linejoin:round;stroke-miterlimit:10;" d="
			M261.802,240.656c0,0-2.043,0-2.043,3.641"/>
		<path style="fill:#33541D;" d="M339.172,242.063c27.672,8.819,21.769,41.585,15.629,62.238
			c-3.738,12.575-14.409,38.496-22.184,56.85c-5.312,12.539-17.253,20.994-30.844,21.854h0c0,0-4.465,17.025-37.399,11.164
			c-14.792,13.955-46.453,10.363-50.237-17.583c-3.628-26.793,17.025-34.887,26.793-32.096
			c7.256-12.001,21.211-15.629,32.375-11.164c3.628-7.536,8.373-7.256,8.373-7.256s-0.279-31.817,18.42-44.934
			C301.215,254.343,313.775,233.969,339.172,242.063z"/>
		
			<path style="fill:none;stroke:#211D16;stroke-width:1.7802;stroke-linecap:round;stroke-linejoin:round;stroke-miterlimit:10;" d="
			M352.154,374.259c0,0,17.89,17.358,23.565,25.202"/>
		
			<path style="fill:none;stroke:#1D3011;stroke-width:1.7802;stroke-linecap:round;stroke-linejoin:round;stroke-miterlimit:10;" d="
			M291.819,289.624c0,0,2.758-6.145,8.28-8.488c0.181-23.038,8.869-45.762,39.073-39.073"/>
		
			<ellipse transform="matrix(0.9196 -0.3928 0.3928 0.9196 -116.5123 150.6362)" style="fill:#FCB442;" cx="309.836" cy="360.025" rx="18.697" ry="15.605"/>
		
			<path style="fill:none;stroke:#211D16;stroke-width:1.7802;stroke-linecap:round;stroke-linejoin:round;stroke-miterlimit:10;" d="
			M365.371,380.768c0,0,12.184,4.339,17.19,7.844"/>
		
			<path style="fill:none;stroke:#4291C9;stroke-width:1.7802;stroke-linecap:round;stroke-linejoin:round;stroke-miterlimit:10;" d="
			M254.7,290.81c0,0,7.027,16.189,6.047,32.378"/>
		
			<line style="fill:none;stroke:#4291C9;stroke-width:1.7802;stroke-linecap:round;stroke-linejoin:round;stroke-miterlimit:10;" x1="251.42" y1="299.321" x2="253.045" y2="319.577"/>
		
			<path style="fill:none;stroke:#4291C9;stroke-width:1.7802;stroke-linecap:round;stroke-linejoin:round;stroke-miterlimit:10;" d="
			M262.895,299.321c0,0,5.841,5.641,7.51,15.505"/>
		
			<path style="fill:none;stroke:#211D16;stroke-width:1.7802;stroke-linecap:round;stroke-linejoin:round;stroke-miterlimit:10;" d="
			M227.805,428.543c0,0-2.629-8.257-17.274-9.01"/>
		<g>
			<path style="fill:#FFFFFF;" d="M165.465,458.082H78.946c0-8.796,1.664-24.58,28.27-27.531c3.375-0.374,6.565-1.742,9.223-3.855
				l3.801-3.021c4.051-3.22,9.236-4.656,14.367-3.978l4.615,0.61c4.286,0.566,8.006,3.235,9.915,7.113l0,0
				c0.967,1.965,2.57,3.538,4.555,4.465C159.265,434.489,170.433,441.899,165.465,458.082z"/>
			<path style="fill:#1266A3;" d="M79.42,451.569c-0.395,2.365-0.474,4.603-0.474,6.512h86.519c0.722-2.353,1.1-4.518,1.207-6.512
				H79.42z"/>
			<path style="fill:#4291C9;" d="M118.894,451.569c-0.33-2.45-1.117-4.753-2.273-6.842c-8.848-16.002-33.333-12.095-37.007,5.818
				c-0.071,0.344-0.134,0.686-0.191,1.025H118.894z"/>
			
				<path style="fill:none;stroke:#4291C9;stroke-width:1.7802;stroke-linecap:round;stroke-linejoin:round;stroke-miterlimit:10;" d="
				M113.437,440.421l14.172-2.87c2.077-0.421,3.977-1.464,5.447-2.99l6.169-6.405c1.78-1.848,4.628-2.157,6.763-0.734l2.173,1.449"
				/>
			<path style="fill:#4291C9;" d="M157.755,451.569h8.907c0.358-6.704-2.374-11.455-5.679-14.705
				C162.968,442.049,160.044,448.327,157.755,451.569z"/>
			
				<path style="fill:none;stroke:#4291C9;stroke-width:1.7802;stroke-linecap:round;stroke-linejoin:round;stroke-miterlimit:10;" d="
				M144.53,432.663l-6.423,6.313c-1.999,1.965-4.528,3.304-7.277,3.851l-13.769,2.744"/>
		</g>
		<path style="fill:#211D16;" d="M151.933,429.419l-9.004,2.451c-9.981,2.717-17.271,11.367-18.101,21.678
			c-0.12,1.496-0.194,3.008-0.225,4.534h35.341L151.933,429.419z"/>
		<g>
			<path style="fill:#FFFFFF;" d="M213.995,458.082h-86.519c0-8.796,1.663-24.58,28.27-27.531c3.375-0.374,6.565-1.742,9.223-3.855
				l3.801-3.021c4.051-3.22,9.236-4.656,14.367-3.978l4.616,0.61c4.286,0.566,8.006,3.235,9.915,7.113l0,0
				c0.967,1.965,2.57,3.538,4.555,4.465C207.796,434.489,218.963,441.899,213.995,458.082z"/>
			<path style="fill:#1266A3;" d="M127.95,451.569c-0.395,2.365-0.474,4.603-0.474,6.512h86.519c0.722-2.353,1.1-4.518,1.208-6.512
				H127.95z"/>
			<path style="fill:#4291C9;" d="M167.424,451.569c-0.33-2.45-1.117-4.753-2.273-6.842c-8.848-16.002-33.333-12.095-37.007,5.818
				c-0.07,0.344-0.134,0.686-0.191,1.025H167.424z"/>
			
				<path style="fill:none;stroke:#4291C9;stroke-width:1.7802;stroke-linecap:round;stroke-linejoin:round;stroke-miterlimit:10;" d="
				M161.967,440.421l14.172-2.87c2.077-0.421,3.977-1.464,5.447-2.99l6.169-6.405c1.78-1.848,4.628-2.157,6.763-0.734l2.173,1.449"
				/>
			<path style="fill:#4291C9;" d="M206.285,451.569h8.907c0.358-6.704-2.374-11.455-5.679-14.705
				C211.498,442.049,208.575,448.327,206.285,451.569z"/>
			
				<path style="fill:none;stroke:#4291C9;stroke-width:1.7802;stroke-linecap:round;stroke-linejoin:round;stroke-miterlimit:10;" d="
				M193.061,432.663l-6.423,6.313c-1.999,1.965-4.528,3.304-7.278,3.851l-13.769,2.744"/>
		</g>
		<path style="fill:#FCB442;" d="M153.904,281.415c-6.889,7.396-10.285,18.655-3.958,27.404c6.419,8.878,19.829,7.064,26.027,3.017
			L153.904,281.415z"/>
		<g>
			<path style="fill:#FFFFFF;" d="M205.929,312.459h-28.414c-2.176,0-4.809-1.525-5.88-3.405l-27.62-48.501
				c-1.071-1.881-0.175-3.405,2.001-3.405h28.414c2.176,0,4.809,1.525,5.88,3.405l27.62,48.501
				C209.001,310.935,208.105,312.459,205.929,312.459z"/>
			<g>
				<path style="fill:#211D16;" d="M159.728,265.315c1.13,1.983,0.185,3.591-2.111,3.591s-5.071-1.608-6.201-3.591
					c-1.129-1.983-0.185-3.591,2.111-3.591S158.598,263.332,159.728,265.315z"/>
				<path style="fill:#211D16;" d="M164.703,274.051c1.13,1.983,0.185,3.591-2.111,3.591c-2.295,0-5.071-1.608-6.201-3.591
					c-1.13-1.983-0.185-3.591,2.11-3.591C160.797,270.46,163.573,272.068,164.703,274.051z"/>
			</g>
			
				<line style="fill:none;stroke:#BCBFC4;stroke-width:1.8503;stroke-linecap:round;stroke-linejoin:round;stroke-miterlimit:10;" x1="176.591" y1="261.724" x2="203.017" y2="308.128"/>
		</g>
		<g>
			<path style="fill:#D46F4B;" d="M165.472,283.724l7.484,3.055c1.846,0.525,3.773,0.708,5.685,0.542l9.419-0.82
				c1.868-0.163,3.545,1.144,3.844,2.996l0,0c0.325,2.018-1.102,3.898-3.133,4.126l-9.435,1.063h10.562
				c1.269,0,2.362,0.894,2.614,2.138l0,0c0.31,1.531-0.757,2.999-2.309,3.178l-11.128,1.281l-5.847,0.605l8.166,2.117h5.928
				c1.049,0,1.934,0.779,2.067,1.819l0,0c0.149,1.159-0.685,2.214-1.847,2.338l-5.651,0.601c-1.13,0.12-2.272,0.048-3.378-0.214
				l-9.821-2.326c-8.871-1.31-17.03-7.962-14.226-22.499H165.472z"/>
			
				<path style="fill:none;stroke:#9C4426;stroke-width:1.7802;stroke-linecap:round;stroke-linejoin:round;stroke-miterlimit:10;" d="
				M167.527,294.126c4.088,1.21,7.755,1.121,14.005,0.561"/>
			<path style="fill:#9C4426;" d="M172.532,286.606l-7.06-2.882h-11.007c-0.49,2.542-0.639,4.837-0.513,6.91
				C153.66,285.961,165.416,285.167,172.532,286.606z"/>
			<path style="fill:#D46F4B;" d="M152.159,280.232v-0.073c0-2.174,1.522-4.047,3.652-4.481c3.695-0.754,9.771-1.569,16.245-0.664
				c2.25,0.315,3.917,2.261,3.917,4.533l0,0c0,2.547-2.074,4.601-4.621,4.573c-3.788-0.042-9.281,0.036-14.048,0.646
				C154.572,285.116,152.159,282.986,152.159,280.232z"/>
		</g>
		<path style="fill:#FFFFFF;" d="M235.597,237.829c-1.113,1.919-3.06,6.092,0,6.092C238.657,243.921,236.71,239.749,235.597,237.829
			z"/>
		<path style="fill:#FFFFFF;" d="M254.7,228.594c-1.113,1.919-3.06,6.092,0,6.092S255.812,230.514,254.7,228.594z"/>
		
			<path style="fill:none;stroke:#9C4426;stroke-width:1.7802;stroke-linecap:round;stroke-linejoin:round;stroke-miterlimit:10;" d="
			M211.341,212.728c-0.771,1.707-2.414,2.991-4.257,3.326c-1.842,0.335-3.833-0.287-5.156-1.612"/>
		
			<path style="fill:none;stroke:#9C4426;stroke-width:1.7802;stroke-linecap:round;stroke-linejoin:round;stroke-miterlimit:10;" d="
			M209.5,198.108c-1.058-0.556-2.347-0.069-3.413,0.474c-0.551,0.281-1.099,0.579-1.575,0.975c-1.508,1.256-2.085,3.514-1.365,5.34
			c0.72,1.826,2.683,3.082,4.643,2.97"/>
		
			<path style="fill:none;stroke:#9C4426;stroke-width:1.7802;stroke-linecap:round;stroke-linejoin:round;stroke-miterlimit:10;" d="
			M215.889,204.531c0.553,1.023,1.514,1.786,2.58,2.25c1.066,0.464,2.234,0.649,3.395,0.713c0.568,0.031,1.147,0.033,1.694-0.125
			c0.416-0.119,0.8-0.327,1.17-0.552c1.456-0.888,2.73-2.072,3.721-3.46"/>
		
			<path style="fill:none;stroke:#9C4426;stroke-width:1.7802;stroke-linecap:round;stroke-linejoin:round;stroke-miterlimit:10;" d="
			M237.085,195.468c0.171,0.881,1.037,1.438,1.86,1.796c1.782,0.776,3.777,1.123,5.693,0.795c1.915-0.328,3.736-1.369,4.837-2.97"/>
		
			<path style="fill:none;stroke:#9C4426;stroke-width:1.7802;stroke-linecap:round;stroke-linejoin:round;stroke-miterlimit:10;" d="
			M260.58,194.122c-0.671,1.791,0.142,3.913,1.622,5.126c1.48,1.212,3.487,1.623,5.397,1.531"/>
		
			<path style="fill:none;stroke:#9C4426;stroke-width:1.7802;stroke-linecap:round;stroke-linejoin:round;stroke-miterlimit:10;" d="
			M230.017,186.427c0.327,0.99,1.193,1.727,2.148,2.144c0.955,0.417,2.004,0.559,3.037,0.697c0.654,0.087,1.311,0.174,1.97,0.152
			c1.96-0.068,3.853-1.183,4.864-2.864"/>
		
			<path style="fill:none;stroke:#9C4426;stroke-width:1.7802;stroke-linecap:round;stroke-linejoin:round;stroke-miterlimit:10;" d="
			M230.853,192.411c-0.755,2.141-2.514,3.903-4.653,4.662s-4.615,0.5-6.551-0.686"/>
		
			<path style="fill:none;stroke:#9C4426;stroke-width:1.7802;stroke-linecap:round;stroke-linejoin:round;stroke-miterlimit:10;" d="
			M217.182,187.027c0.409-0.251,0.368-0.841,0.379-1.321c0.035-1.61,1.26-3.021,2.735-3.667c1.475-0.646,3.153-0.649,4.751-0.45"/>
		
			<path style="fill:none;stroke:#9C4426;stroke-width:1.7802;stroke-linecap:round;stroke-linejoin:round;stroke-miterlimit:10;" d="
			M236.955,179.313c1.3-1.378,2.921-2.679,4.815-2.717c1.158-0.023,2.266,0.434,3.334,0.884c0.265,0.112,0.536,0.227,0.751,0.419
			c0.37,0.332,0.517,0.839,0.648,1.318c0.205,0.752,0.41,1.503,0.615,2.255"/>
		
			<path style="fill:none;stroke:#9C4426;stroke-width:1.7802;stroke-linecap:round;stroke-linejoin:round;stroke-miterlimit:10;" d="
			M257.207,190.178c1.178-1.364,3.254-1.864,4.923-1.186c0.849,0.344,1.566,0.947,2.223,1.585c0.693,0.674,1.375,1.486,1.407,2.452"
			/>
		
			<path style="fill:none;stroke:#1D3011;stroke-width:1.7802;stroke-linecap:round;stroke-linejoin:round;stroke-miterlimit:10;" d="
			M141.059,284.804c-9.68,7.616-9.323,24.016-2.17,30.382"/>
		
			<path style="fill:none;stroke:#1D3011;stroke-width:1.7802;stroke-linecap:round;stroke-linejoin:round;stroke-miterlimit:10;" d="
			M284.258,327.193c0,0,7.344,0.501,12.684,3.839"/>
		
			<path style="fill:none;stroke:#1D3011;stroke-width:1.7802;stroke-linecap:round;stroke-linejoin:round;stroke-miterlimit:10;" d="
			M274.912,335.705c0,0,8.48,5.341,11.917,15.021"/>
		
			<path style="fill:none;stroke:#211D16;stroke-width:1.7802;stroke-linecap:round;stroke-linejoin:round;stroke-miterlimit:10;" d="
			M133.643,386.86c0,0-0.259,10.161,20.267-3.588"/>
	</g>
	<g style="display:none;">
		<g style="display:inline;">
			<line style="fill:none;stroke:#FF5C5C;stroke-miterlimit:10;" x1="39.11" y1="0" x2="39.11" y2="500"/>
			<line style="fill:none;stroke:#FF5C5C;stroke-miterlimit:10;" x1="77.453" y1="0" x2="77.453" y2="500"/>
			<line style="fill:none;stroke:#FF5C5C;stroke-miterlimit:10;" x1="115.797" y1="0" x2="115.797" y2="500"/>
			<line style="fill:none;stroke:#FF5C5C;stroke-miterlimit:10;" x1="154.141" y1="0" x2="154.141" y2="500"/>
			<line style="fill:none;stroke:#FF5C5C;stroke-miterlimit:10;" x1="192.484" y1="0" x2="192.484" y2="500"/>
			<line style="fill:none;stroke:#FF5C5C;stroke-miterlimit:10;" x1="230.828" y1="0" x2="230.828" y2="500"/>
			<line style="fill:none;stroke:#FF5C5C;stroke-miterlimit:10;" x1="269.172" y1="0" x2="269.172" y2="500"/>
			<line style="fill:none;stroke:#FF5C5C;stroke-miterlimit:10;" x1="307.516" y1="0" x2="307.516" y2="500"/>
			<line style="fill:none;stroke:#FF5C5C;stroke-miterlimit:10;" x1="345.859" y1="0" x2="345.859" y2="500"/>
			<line style="fill:none;stroke:#FF5C5C;stroke-miterlimit:10;" x1="384.203" y1="0" x2="384.203" y2="500"/>
			<line style="fill:none;stroke:#FF5C5C;stroke-miterlimit:10;" x1="422.546" y1="0" x2="422.546" y2="500"/>
			<line style="fill:none;stroke:#FF5C5C;stroke-miterlimit:10;" x1="460.89" y1="0" x2="460.89" y2="500"/>
		</g>
		<g style="display:inline;">
			<line style="fill:none;stroke:#FF5C5C;stroke-miterlimit:10;" x1="500" y1="39.11" x2="0" y2="39.11"/>
			<line style="fill:none;stroke:#FF5C5C;stroke-miterlimit:10;" x1="500" y1="77.453" x2="0" y2="77.453"/>
			<line style="fill:none;stroke:#FF5C5C;stroke-miterlimit:10;" x1="500" y1="115.797" x2="0" y2="115.797"/>
			<line style="fill:none;stroke:#FF5C5C;stroke-miterlimit:10;" x1="500" y1="154.141" x2="0" y2="154.141"/>
			<line style="fill:none;stroke:#FF5C5C;stroke-miterlimit:10;" x1="500" y1="192.484" x2="0" y2="192.484"/>
			<line style="fill:none;stroke:#FF5C5C;stroke-miterlimit:10;" x1="500" y1="230.828" x2="0" y2="230.828"/>
			<line style="fill:none;stroke:#FF5C5C;stroke-miterlimit:10;" x1="500" y1="269.172" x2="0" y2="269.172"/>
			<line style="fill:none;stroke:#FF5C5C;stroke-miterlimit:10;" x1="500" y1="307.516" x2="0" y2="307.516"/>
			<line style="fill:none;stroke:#FF5C5C;stroke-miterlimit:10;" x1="500" y1="345.859" x2="0" y2="345.859"/>
			<line style="fill:none;stroke:#FF5C5C;stroke-miterlimit:10;" x1="500" y1="384.203" x2="0" y2="384.203"/>
			<line style="fill:none;stroke:#FF5C5C;stroke-miterlimit:10;" x1="500" y1="422.547" x2="0" y2="422.547"/>
			<line style="fill:none;stroke:#FF5C5C;stroke-miterlimit:10;" x1="500" y1="460.89" x2="0" y2="460.89"/>
		</g>
	</g>
	
		<line style="fill:none;stroke:#5F6A80;stroke-width:3.4553;stroke-miterlimit:10;" x1="37.338" y1="458.082" x2="462.249" y2="458.082"/>
	<path style="fill:#DEE5F2;" d="M440.061,258.428c-0.62-9.24-10.009-16.582-21.533-16.582c-0.355,0-0.702,0.029-1.053,0.043
		c-4.876-6.909-12.915-11.426-22.014-11.426c-11.668,0-21.601,7.422-25.341,17.8c-1.548-0.344-3.165-0.546-4.843-0.546
		c-7.9,0-14.654,4.077-17.455,9.852c-7.678,0.28-13.822,6.576-13.822,14.323c0,7.925,6.424,14.349,14.349,14.349h86.788
		c7.925,0,14.349-6.424,14.349-14.349C449.488,265.699,445.557,260.439,440.061,258.428z"/>
	<g>
		<g>
			<g>
				<path style="fill:#DEE5F2;" d="M351.834,303.803c-0.8,0-1.449-0.648-1.449-1.449v-5.6c0-0.8,0.649-1.449,1.449-1.449
					s1.449,0.648,1.449,1.449v5.6C353.282,303.155,352.634,303.803,351.834,303.803z"/>
			</g>
			<g>
				<path style="fill:#DEE5F2;" d="M351.834,317.888c-0.8,0-1.449-0.648-1.449-1.449v-5.6c0-0.8,0.649-1.449,1.449-1.449
					s1.449,0.648,1.449,1.449v5.6C353.282,317.24,352.634,317.888,351.834,317.888z"/>
			</g>
			<g>
				<path style="fill:#DEE5F2;" d="M351.834,331.973c-0.8,0-1.449-0.648-1.449-1.449v-5.6c0-0.8,0.649-1.449,1.449-1.449
					s1.449,0.648,1.449,1.449v5.6C353.282,331.324,352.634,331.973,351.834,331.973z"/>
			</g>
			<g>
				<path style="fill:#DEE5F2;" d="M351.834,346.058c-0.8,0-1.449-0.648-1.449-1.449v-5.6c0-0.8,0.649-1.449,1.449-1.449
					s1.449,0.648,1.449,1.449v5.6C353.282,345.409,352.634,346.058,351.834,346.058z"/>
			</g>
			<g>
				<path style="fill:#DEE5F2;" d="M351.834,360.143c-0.8,0-1.449-0.648-1.449-1.449v-5.6c0-0.8,0.649-1.449,1.449-1.449
					s1.449,0.648,1.449,1.449v5.6C353.282,359.495,352.634,360.143,351.834,360.143z"/>
			</g>
			<g>
				<path style="fill:#DEE5F2;" d="M351.834,374.228c-0.8,0-1.449-0.648-1.449-1.449v-5.6c0-0.8,0.649-1.449,1.449-1.449
					s1.449,0.648,1.449,1.449v5.6C353.282,373.58,352.634,374.228,351.834,374.228z"/>
			</g>
			<g>
				<path style="fill:#DEE5F2;" d="M351.834,388.313c-0.8,0-1.449-0.648-1.449-1.449v-5.6c0-0.8,0.649-1.449,1.449-1.449
					s1.449,0.648,1.449,1.449v5.6C353.282,387.665,352.634,388.313,351.834,388.313z"/>
			</g>
		</g>
		<g>
			<g>
				<path style="fill:#DEE5F2;" d="M365.137,310.846c-0.8,0-1.449-0.648-1.449-1.449v-5.6c0-0.8,0.649-1.449,1.449-1.449
					c0.8,0,1.449,0.648,1.449,1.449v5.6C366.586,310.198,365.937,310.846,365.137,310.846z"/>
			</g>
			<g>
				<path style="fill:#DEE5F2;" d="M365.137,324.931c-0.8,0-1.449-0.648-1.449-1.449v-5.6c0-0.8,0.649-1.449,1.449-1.449
					c0.8,0,1.449,0.648,1.449,1.449v5.6C366.586,324.283,365.937,324.931,365.137,324.931z"/>
			</g>
			<g>
				<path style="fill:#DEE5F2;" d="M365.137,339.015c-0.8,0-1.449-0.648-1.449-1.449v-5.6c0-0.8,0.649-1.449,1.449-1.449
					c0.8,0,1.449,0.648,1.449,1.449v5.6C366.586,338.367,365.937,339.015,365.137,339.015z"/>
			</g>
			<g>
				<path style="fill:#DEE5F2;" d="M365.137,353.1c-0.8,0-1.449-0.648-1.449-1.449v-5.6c0-0.8,0.649-1.449,1.449-1.449
					c0.8,0,1.449,0.648,1.449,1.449v5.6C366.586,352.452,365.937,353.1,365.137,353.1z"/>
			</g>
			<g>
				<path style="fill:#DEE5F2;" d="M365.137,367.185c-0.8,0-1.449-0.648-1.449-1.449v-5.6c0-0.8,0.649-1.449,1.449-1.449
					c0.8,0,1.449,0.648,1.449,1.449v5.6C366.586,366.537,365.937,367.185,365.137,367.185z"/>
			</g>
			<g>
				<path style="fill:#DEE5F2;" d="M365.137,381.271c-0.8,0-1.449-0.648-1.449-1.449v-5.6c0-0.8,0.649-1.449,1.449-1.449
					c0.8,0,1.449,0.648,1.449,1.449v5.6C366.586,380.622,365.937,381.271,365.137,381.271z"/>
			</g>
		</g>
		<g>
			<g>
				<path style="fill:#DEE5F2;" d="M378.441,303.803c-0.8,0-1.449-0.648-1.449-1.449v-5.6c0-0.8,0.649-1.449,1.449-1.449
					c0.8,0,1.449,0.648,1.449,1.449v5.6C379.889,303.155,379.24,303.803,378.441,303.803z"/>
			</g>
			<g>
				<path style="fill:#DEE5F2;" d="M378.441,317.888c-0.8,0-1.449-0.648-1.449-1.449v-5.6c0-0.8,0.649-1.449,1.449-1.449
					c0.8,0,1.449,0.648,1.449,1.449v5.6C379.889,317.24,379.24,317.888,378.441,317.888z"/>
			</g>
			<g>
				<path style="fill:#DEE5F2;" d="M378.441,331.973c-0.8,0-1.449-0.648-1.449-1.449v-5.6c0-0.8,0.649-1.449,1.449-1.449
					c0.8,0,1.449,0.648,1.449,1.449v5.6C379.889,331.324,379.24,331.973,378.441,331.973z"/>
			</g>
			<g>
				<path style="fill:#DEE5F2;" d="M378.441,346.058c-0.8,0-1.449-0.648-1.449-1.449v-5.6c0-0.8,0.649-1.449,1.449-1.449
					c0.8,0,1.449,0.648,1.449,1.449v5.6C379.889,345.409,379.24,346.058,378.441,346.058z"/>
			</g>
			<g>
				<path style="fill:#DEE5F2;" d="M378.441,360.143c-0.8,0-1.449-0.648-1.449-1.449v-5.6c0-0.8,0.649-1.449,1.449-1.449
					c0.8,0,1.449,0.648,1.449,1.449v5.6C379.889,359.495,379.24,360.143,378.441,360.143z"/>
			</g>
			<g>
				<path style="fill:#DEE5F2;" d="M378.441,374.228c-0.8,0-1.449-0.648-1.449-1.449v-5.6c0-0.8,0.649-1.449,1.449-1.449
					c0.8,0,1.449,0.648,1.449,1.449v5.6C379.889,373.58,379.24,374.228,378.441,374.228z"/>
			</g>
			<g>
				<path style="fill:#DEE5F2;" d="M378.441,388.313c-0.8,0-1.449-0.648-1.449-1.449v-5.6c0-0.8,0.649-1.449,1.449-1.449
					c0.8,0,1.449,0.648,1.449,1.449v5.6C379.889,387.665,379.24,388.313,378.441,388.313z"/>
			</g>
		</g>
		<g>
			<g>
				<path style="fill:#DEE5F2;" d="M391.744,310.846c-0.8,0-1.449-0.648-1.449-1.449v-5.6c0-0.8,0.649-1.449,1.449-1.449
					c0.8,0,1.449,0.648,1.449,1.449v5.6C393.193,310.198,392.544,310.846,391.744,310.846z"/>
			</g>
			<g>
				<path style="fill:#DEE5F2;" d="M391.744,324.931c-0.8,0-1.449-0.648-1.449-1.449v-5.6c0-0.8,0.649-1.449,1.449-1.449
					c0.8,0,1.449,0.648,1.449,1.449v5.6C393.193,324.283,392.544,324.931,391.744,324.931z"/>
			</g>
			<g>
				<path style="fill:#DEE5F2;" d="M391.744,339.015c-0.8,0-1.449-0.648-1.449-1.449v-5.6c0-0.8,0.649-1.449,1.449-1.449
					c0.8,0,1.449,0.648,1.449,1.449v5.6C393.193,338.367,392.544,339.015,391.744,339.015z"/>
			</g>
			<g>
				<path style="fill:#DEE5F2;" d="M391.744,353.1c-0.8,0-1.449-0.648-1.449-1.449v-5.6c0-0.8,0.649-1.449,1.449-1.449
					c0.8,0,1.449,0.648,1.449,1.449v5.6C393.193,352.452,392.544,353.1,391.744,353.1z"/>
			</g>
			<g>
				<path style="fill:#DEE5F2;" d="M391.744,367.185c-0.8,0-1.449-0.648-1.449-1.449v-5.6c0-0.8,0.649-1.449,1.449-1.449
					c0.8,0,1.449,0.648,1.449,1.449v5.6C393.193,366.537,392.544,367.185,391.744,367.185z"/>
			</g>
			<g>
				<path style="fill:#DEE5F2;" d="M391.744,381.271c-0.8,0-1.449-0.648-1.449-1.449v-5.6c0-0.8,0.649-1.449,1.449-1.449
					c0.8,0,1.449,0.648,1.449,1.449v5.6C393.193,380.622,392.544,381.271,391.744,381.271z"/>
			</g>
		</g>
		<g>
			<g>
				<path style="fill:#DEE5F2;" d="M405.047,303.803c-0.8,0-1.449-0.648-1.449-1.449v-5.6c0-0.8,0.649-1.449,1.449-1.449
					s1.449,0.648,1.449,1.449v5.6C406.496,303.155,405.847,303.803,405.047,303.803z"/>
			</g>
			<g>
				<path style="fill:#DEE5F2;" d="M405.047,317.888c-0.8,0-1.449-0.648-1.449-1.449v-5.6c0-0.8,0.649-1.449,1.449-1.449
					s1.449,0.648,1.449,1.449v5.6C406.496,317.24,405.847,317.888,405.047,317.888z"/>
			</g>
			<g>
				<path style="fill:#DEE5F2;" d="M405.047,331.973c-0.8,0-1.449-0.648-1.449-1.449v-5.6c0-0.8,0.649-1.449,1.449-1.449
					s1.449,0.648,1.449,1.449v5.6C406.496,331.324,405.847,331.973,405.047,331.973z"/>
			</g>
			<g>
				<path style="fill:#DEE5F2;" d="M405.047,346.058c-0.8,0-1.449-0.648-1.449-1.449v-5.6c0-0.8,0.649-1.449,1.449-1.449
					s1.449,0.648,1.449,1.449v5.6C406.496,345.409,405.847,346.058,405.047,346.058z"/>
			</g>
			<g>
				<path style="fill:#DEE5F2;" d="M405.047,360.143c-0.8,0-1.449-0.648-1.449-1.449v-5.6c0-0.8,0.649-1.449,1.449-1.449
					s1.449,0.648,1.449,1.449v5.6C406.496,359.495,405.847,360.143,405.047,360.143z"/>
			</g>
			<g>
				<path style="fill:#DEE5F2;" d="M405.047,374.228c-0.8,0-1.449-0.648-1.449-1.449v-5.6c0-0.8,0.649-1.449,1.449-1.449
					s1.449,0.648,1.449,1.449v5.6C406.496,373.58,405.847,374.228,405.047,374.228z"/>
			</g>
			<g>
				<path style="fill:#DEE5F2;" d="M405.047,388.313c-0.8,0-1.449-0.648-1.449-1.449v-5.6c0-0.8,0.649-1.449,1.449-1.449
					s1.449,0.648,1.449,1.449v5.6C406.496,387.665,405.847,388.313,405.047,388.313z"/>
			</g>
		</g>
		<g>
			<g>
				<path style="fill:#DEE5F2;" d="M431.654,303.803c-0.8,0-1.449-0.648-1.449-1.449v-5.6c0-0.8,0.649-1.449,1.449-1.449
					s1.449,0.648,1.449,1.449v5.6C433.103,303.155,432.454,303.803,431.654,303.803z"/>
			</g>
			<g>
				<path style="fill:#DEE5F2;" d="M431.654,317.888c-0.8,0-1.449-0.648-1.449-1.449v-5.6c0-0.8,0.649-1.449,1.449-1.449
					s1.449,0.648,1.449,1.449v5.6C433.103,317.24,432.454,317.888,431.654,317.888z"/>
			</g>
			<g>
				<path style="fill:#DEE5F2;" d="M431.654,331.973c-0.8,0-1.449-0.648-1.449-1.449v-5.6c0-0.8,0.649-1.449,1.449-1.449
					s1.449,0.648,1.449,1.449v5.6C433.103,331.324,432.454,331.973,431.654,331.973z"/>
			</g>
			<g>
				<path style="fill:#DEE5F2;" d="M431.654,346.058c-0.8,0-1.449-0.648-1.449-1.449v-5.6c0-0.8,0.649-1.449,1.449-1.449
					s1.449,0.648,1.449,1.449v5.6C433.103,345.409,432.454,346.058,431.654,346.058z"/>
			</g>
			<g>
				<path style="fill:#DEE5F2;" d="M431.654,360.143c-0.8,0-1.449-0.648-1.449-1.449v-5.6c0-0.8,0.649-1.449,1.449-1.449
					s1.449,0.648,1.449,1.449v5.6C433.103,359.495,432.454,360.143,431.654,360.143z"/>
			</g>
			<g>
				<path style="fill:#DEE5F2;" d="M431.654,374.228c-0.8,0-1.449-0.648-1.449-1.449v-5.6c0-0.8,0.649-1.449,1.449-1.449
					s1.449,0.648,1.449,1.449v5.6C433.103,373.58,432.454,374.228,431.654,374.228z"/>
			</g>
			<g>
				<path style="fill:#DEE5F2;" d="M431.654,388.313c-0.8,0-1.449-0.648-1.449-1.449v-5.6c0-0.8,0.649-1.449,1.449-1.449
					s1.449,0.648,1.449,1.449v5.6C433.103,387.665,432.454,388.313,431.654,388.313z"/>
			</g>
		</g>
		<g>
			<g>
				<path style="fill:#DEE5F2;" d="M418.351,310.846c-0.8,0-1.449-0.648-1.449-1.449v-5.6c0-0.8,0.649-1.449,1.449-1.449
					c0.8,0,1.449,0.648,1.449,1.449v5.6C419.799,310.198,419.151,310.846,418.351,310.846z"/>
			</g>
			<g>
				<path style="fill:#DEE5F2;" d="M418.351,324.931c-0.8,0-1.449-0.648-1.449-1.449v-5.6c0-0.8,0.649-1.449,1.449-1.449
					c0.8,0,1.449,0.648,1.449,1.449v5.6C419.799,324.283,419.151,324.931,418.351,324.931z"/>
			</g>
			<g>
				<path style="fill:#DEE5F2;" d="M418.351,339.015c-0.8,0-1.449-0.648-1.449-1.449v-5.6c0-0.8,0.649-1.449,1.449-1.449
					c0.8,0,1.449,0.648,1.449,1.449v5.6C419.799,338.367,419.151,339.015,418.351,339.015z"/>
			</g>
			<g>
				<path style="fill:#DEE5F2;" d="M418.351,353.1c-0.8,0-1.449-0.648-1.449-1.449v-5.6c0-0.8,0.649-1.449,1.449-1.449
					c0.8,0,1.449,0.648,1.449,1.449v5.6C419.799,352.452,419.151,353.1,418.351,353.1z"/>
			</g>
			<g>
				<path style="fill:#DEE5F2;" d="M418.351,367.185c-0.8,0-1.449-0.648-1.449-1.449v-5.6c0-0.8,0.649-1.449,1.449-1.449
					c0.8,0,1.449,0.648,1.449,1.449v5.6C419.799,366.537,419.151,367.185,418.351,367.185z"/>
			</g>
			<g>
				<path style="fill:#DEE5F2;" d="M418.351,381.271c-0.8,0-1.449-0.648-1.449-1.449v-5.6c0-0.8,0.649-1.449,1.449-1.449
					c0.8,0,1.449,0.648,1.449,1.449v5.6C419.799,380.622,419.151,381.271,418.351,381.271z"/>
			</g>
		</g>
	</g>
	<g>
		<g>
			
				<ellipse transform="matrix(0.7071 -0.7071 0.7071 0.7071 35.4347 298.0803)" style="fill:#FFFFFF;" cx="377.532" cy="106.267" rx="60.476" ry="60.476"/>
			<polygon style="fill:#FFFFFF;" points="326.447,136.311 339.126,151.403 313.427,160.121 			"/>
		</g>
		<g>
			<path style="fill:#E84C4A;" d="M376.055,135.25c0-0.256,0.066-0.507,0.192-0.73l3.317-5.843l-3.592,0.107
				c-0.616,0.02-1.106-0.301-1.364-0.814c-0.259-0.513-0.195-1.13,0.161-1.58l6.726-8.504h-7.477c-0.615,0-1.166-0.381-1.382-0.956
				c-0.217-0.575-0.055-1.225,0.407-1.631l9.816-8.634l-14.466,4.864c-0.624,0.212-1.315-0.02-1.689-0.565
				c-0.374-0.545-0.342-1.271,0.08-1.779l9.632-11.618h-4.245c-0.602,0-1.145-0.366-1.37-0.925c-0.226-0.559-0.09-1.198,0.344-1.617
				l4.909-4.737v-5.751l-3.582-2.735c-9.27-7.08-22.63-4.586-28.721,5.362l0,0c-4.744,7.746-3.568,17.733,2.844,24.166
				l29.459,29.554V135.25z"/>
			<path style="fill:#E84C4A;" d="M411.313,87.163L411.313,87.163c-6.092-9.948-19.451-12.441-28.721-5.362l-3.581,2.735v6.38
				c0,0.401-0.163,0.785-0.451,1.064l-2.728,2.631h3.729c0.573,0,1.094,0.331,1.337,0.849c0.243,0.519,0.165,1.131-0.199,1.572
				l-8.323,10.04l16.505-5.549c0.668-0.223,1.399,0.053,1.751,0.663c0.351,0.61,0.224,1.383-0.305,1.848l-12.39,10.898h6.612
				c0.567,0,1.083,0.324,1.331,0.834c0.246,0.51,0.18,1.116-0.171,1.561l-6.652,8.41l3.047-0.091
				c0.563-0.022,1.034,0.258,1.31,0.715c0.275,0.457,0.283,1.028,0.019,1.492l-4.422,7.788v5.242l29.458-29.553
				C414.881,104.896,416.057,94.909,411.313,87.163z"/>
		</g>
	</g>
	<g>
		
			<line style="fill:none;stroke:#FFFFFF;stroke-width:6;stroke-linecap:round;stroke-linejoin:round;stroke-miterlimit:10;" x1="151.476" y1="117.15" x2="190.492" y2="159.628"/>
		
			<line style="fill:none;stroke:#FFFFFF;stroke-width:6;stroke-linecap:round;stroke-linejoin:round;stroke-miterlimit:10;" x1="180.835" y1="96.541" x2="207.528" y2="147.67"/>
		
			<line style="fill:none;stroke:#FFFFFF;stroke-width:6;stroke-linecap:round;stroke-linejoin:round;stroke-miterlimit:10;" x1="214.528" y1="84.233" x2="227.078" y2="140.528"/>
		
			<line style="fill:none;stroke:#FFFFFF;stroke-width:6;stroke-linecap:round;stroke-linejoin:round;stroke-miterlimit:10;" x1="250.259" y1="81.065" x2="247.811" y2="138.69"/>
		
			<line style="fill:none;stroke:#FFFFFF;stroke-width:6;stroke-linecap:round;stroke-linejoin:round;stroke-miterlimit:10;" x1="285.592" y1="87.252" x2="268.312" y2="142.28"/>
	</g>
</g>
</svg>
