<svg version="1.1" id="Layer_1" xmlns="http://www.w3.org/2000/svg" xmlns:xlink="http://www.w3.org/1999/xlink" x="0px" y="0px" viewBox="0 0 500 500" style="width: 158px;" xml:space="preserve" data-imageid="music-27" imageName="Music" class="illustrations_image">
<style type="text/css">
	.st0_music-27{fill:#FFFFFF;}
	.st1_music-27{fill:#093F68;}
	.st2_music-27{fill:#68E1FD;}
	.st3_music-27{fill:#F56132;}
	.st4_music-27{fill:#FFBC0E;}
	.st5_music-27{fill:#725858;}
	.st6_music-27{fill:#FFC9B0;}
	.st7_music-27{fill:none;}
</style>
<g id="musical-notes_music-27">
	<g id="SBwUh1_music-27">
		<path class="st0_music-27" d="M459.4,218.7l0.1-0.4c1-4,2.1-8,3.1-12v-0.1c0.3-1.1-0.1-1.7-1.3-1.7c-1.6,0.1-3.2,0.1-4.8,0.2l-6.8,0.3&#10;&#9;&#9;&#9;c-1.8,0.1-3.5,0.1-5.3,0.3c-0.5,0.1-1,0.2-1.5,0.5c-0.5,0.3-0.9,0.8-1,1.4c-1.3,4.9-2.6,9.9-3.9,14.8c-0.5,2.6-2.5,4.8-5.1,5.5&#10;&#9;&#9;&#9;c-2.7,0.9-5.7,0.6-8.1-1c-2.3-1.4-3.1-4.3-1.8-6.7c0.2-0.3,0.4-0.6,0.6-0.8c1.4-1.6,3.2-2.6,5.3-2.9c1.5-0.3,3.1-0.2,4.6,0.2&#10;&#9;&#9;&#9;c0.9,0.2,1.6,0.6,2.3,1.2l0.1-0.5c1.5-5.9,3.1-11.8,4.6-17.6c0.7-2.5,2.8-4.2,5.4-4.4c4-0.1,8-0.3,12-0.5l6.5-0.3&#10;&#9;&#9;&#9;c0.8-0.1,1.5,0.1,2.2,0.4c0.9,0.6,1.5,1.6,1.4,2.7c0,0.3-0.1,0.6-0.2,0.9c-2.2,8.4-4.4,16.8-6.6,25.3c-0.5,2-1.9,3.6-3.7,4.4&#10;&#9;&#9;&#9;c-2.5,1.2-5.3,1.4-7.9,0.4c-1.4-0.5-2.6-1.4-3.5-2.6c-0.9-1.4-1.1-3.1-0.4-4.6c0.7-1.6,2.1-2.9,3.8-3.5c2.4-1,5.1-1.1,7.5-0.1&#10;&#9;&#9;&#9;l1.8,0.9C459.1,218.5,459.3,218.6,459.4,218.7z"/>
		<path class="st1_music-27" d="M465,194.3c0.7,0,1.3,0.1,1.9,0.4c0.9,0.6,1.5,1.6,1.4,2.7c0,0.3-0.1,0.6-0.2,0.9c-2.2,8.4-4.4,16.8-6.6,25.3&#10;&#9;&#9;&#9;c-0.5,2-1.9,3.6-3.7,4.4c-1.3,0.7-2.8,1.1-4.3,1.1c-1.2,0-2.4-0.2-3.5-0.6c-1.4-0.5-2.6-1.4-3.5-2.6c-0.9-1.4-1.1-3.1-0.4-4.6&#10;&#9;&#9;&#9;c0.7-1.6,2.1-2.9,3.8-3.5c1.2-0.5,2.6-0.8,3.9-0.8c1.2,0,2.5,0.2,3.6,0.7l1.8,0.9c0.1,0.1,0.2,0.1,0.3,0.2l0.1-0.4l3.1-12v-0.1&#10;&#9;&#9;&#9;c0.3-1.1-0.1-1.7-1.2-1.7h-0.1c-1.6,0.1-3.2,0.1-4.8,0.2l-6.8,0.3c-1.8,0.1-3.5,0.1-5.3,0.3c-0.5,0.1-1,0.2-1.5,0.5&#10;&#9;&#9;&#9;c-0.5,0.3-0.9,0.8-1,1.4c-1.3,4.9-2.6,9.9-3.9,14.8c-0.5,2.6-2.5,4.8-5.1,5.5c-1,0.3-2,0.5-3.1,0.5c-1.8,0-3.5-0.5-5-1.5&#10;&#9;&#9;&#9;c-2.3-1.3-3.2-4.3-1.8-6.7c0,0,0,0,0,0l0.6-0.9c1.4-1.6,3.2-2.6,5.3-2.9c1.5-0.3,3.1-0.2,4.6,0.2c0.9,0.2,1.6,0.6,2.3,1.2l0.1-0.5&#10;&#9;&#9;&#9;c1.5-5.9,3.1-11.8,4.6-17.6c0.7-2.5,2.8-4.2,5.4-4.4c4-0.1,8-0.3,12-0.5l6.5-0.3L465,194.3 M465,190.6h-0.4l-6.5,0.3l-4,0.2&#10;&#9;&#9;&#9;l-8,0.3c-4.2,0.2-7.8,3.1-8.9,7.2c-1.1,4.2-2.2,8.4-3.2,12.5l-0.4,1.4c-0.8-0.2-1.7-0.3-2.6-0.2c-0.8,0-1.6,0.1-2.4,0.2&#10;&#9;&#9;&#9;c-2.9,0.4-5.6,1.9-7.5,4.2c-3.2,3.6-2.8,9,0.7,12.2c0.4,0.4,0.8,0.7,1.3,1c2.1,1.3,4.5,2,7,2c1.4,0,2.9-0.2,4.2-0.7&#10;&#9;&#9;&#9;c3.8-1.1,6.8-4.2,7.6-8.1v-0.2c-0.1,1.8,0.4,3.6,1.4,5.1c1.3,1.9,3.2,3.3,5.4,4.1c1.5,0.5,3.2,0.8,4.8,0.8c2.1,0,4.1-0.5,6-1.4&#10;&#9;&#9;&#9;c2.8-1.3,4.9-3.8,5.6-6.8c1.5-5.7,3-11.5,4.5-17.2l2.1-8c0.1-0.5,0.2-0.9,0.3-1.4c0.3-2.6-0.9-5.1-3.2-6.4&#10;&#9;&#9;&#9;C467.7,190.9,466.4,190.5,465,190.6L465,190.6z M445.5,209.1c1-0.1,2.1-0.1,3.1-0.1l1.5-0.1l2-0.1l4.7-0.2l1.3-0.1h0.2l-1.3,5.1&#10;&#9;&#9;&#9;c-1-0.2-2.1-0.4-3.1-0.4c-1.9,0-3.7,0.4-5.4,1.1c-2.5,1-4.6,2.9-5.7,5.4c0.5-2.1,1.1-4.3,1.7-6.4&#10;&#9;&#9;&#9;C444.7,211.9,445.1,210.5,445.5,209.1L445.5,209.1z"/>
	</g>
	<g id="SBwUh1-2_music-27">
		<path class="st0_music-27" d="M430.3,165.6V165l-0.4-19.5v-0.2c0-1.8-1-2.5-2.7-2c-2.4,0.7-4.7,1.6-7.1,2.3L410,149&#10;&#9;&#9;&#9;c-2.6,0.9-5.3,1.7-7.9,2.7c-0.7,0.3-1.4,0.8-2,1.3c-0.7,0.7-1,1.6-0.9,2.6c0.2,8,0.3,16.1,0.5,24.1c0.3,4.2-1.8,8.3-5.4,10.5&#10;&#9;&#9;&#9;c-3.7,2.6-8.3,3.3-12.6,2c-4.1-1-6.7-5.2-5.7-9.3c0.1-0.6,0.3-1.1,0.6-1.6c1.4-3,3.8-5.4,6.8-6.7c2.2-1.1,4.6-1.6,7.1-1.6&#10;&#9;&#9;&#9;c1.4,0,2.7,0.2,4,0.8v-0.7c-0.2-9.6-0.4-19.1-0.6-28.7c-0.1-4.1,2.5-7.7,6.3-9c6-1.9,12-3.9,17.9-5.9c3.2-1.1,6.5-2.1,9.7-3.2&#10;&#9;&#9;&#9;c1.1-0.4,2.3-0.5,3.5-0.3c1.7,0.4,2.9,1.8,3.2,3.5c0.1,0.5,0.1,0.9,0.1,1.4l0.9,41.1c0.1,3.2-1.2,6.2-3.7,8.2&#10;&#9;&#9;&#9;c-3.2,2.9-7.5,4.4-11.8,4c-2.3-0.1-4.6-0.9-6.4-2.4c-2-1.6-3-4.2-2.5-6.8c0.4-2.8,1.9-5.3,4.2-7c3.2-2.6,7.2-3.8,11.3-3.4&#10;&#9;&#9;&#9;c1,0.2,2.1,0.4,3.1,0.7L430.3,165.6z"/>
		<path class="st1_music-27" d="M430.1,126.1c0.4,0,0.8,0,1.2,0.2c1.7,0.4,2.9,1.8,3.2,3.5c0.1,0.5,0.1,0.9,0.1,1.4l0.9,41.1&#10;&#9;&#9;&#9;c0.1,3.2-1.2,6.2-3.7,8.2c-2.9,2.7-6.7,4.1-10.6,4.1h-1.1c-2.3-0.1-4.6-0.9-6.4-2.4c-2-1.6-3-4.2-2.5-6.8c0.4-2.8,1.9-5.3,4.2-7&#10;&#9;&#9;&#9;c2.8-2.3,6.3-3.5,9.9-3.5c0.5,0,0.9,0,1.4,0.1c1,0.2,2.1,0.4,3.1,0.7l0.5,0.1v-0.7l-0.4-19.5v-0.2c0-1.4-0.6-2.1-1.6-2.1&#10;&#9;&#9;&#9;c-0.3,0-0.7,0.1-1,0.2c-2.4,0.7-4.7,1.6-7.1,2.3l-10.1,3.4c-2.6,0.9-5.3,1.7-7.9,2.7c-0.7,0.3-1.4,0.8-2,1.3&#10;&#9;&#9;&#9;c-0.7,0.7-1,1.6-0.9,2.6c0.2,8,0.3,16.1,0.5,24.1c0.3,4.2-1.8,8.3-5.4,10.5c-2.5,1.7-5.4,2.6-8.4,2.6c-1.5,0-2.9-0.2-4.3-0.6&#10;&#9;&#9;&#9;c-4.1-0.9-6.7-5-5.8-9.1c0,0,0-0.1,0-0.1c0.1-0.6,0.4-1.2,0.7-1.8c1.4-3,3.8-5.4,6.8-6.7c2.2-1.1,4.6-1.6,7.1-1.6h0.1&#10;&#9;&#9;&#9;c1.3,0,2.7,0.2,3.9,0.8v-0.7c-0.2-9.6-0.4-19.1-0.6-28.7c-0.1-4.1,2.5-7.7,6.3-9c6-1.9,12-3.9,17.9-5.9c3.2-1.1,6.5-2.1,9.7-3.2&#10;&#9;&#9;&#9;C428.5,126.1,429.3,126,430.1,126.1 M430.1,122.3c-1.2,0-2.4,0.2-3.5,0.6c-3.3,1-6.5,2.1-9.8,3.2l-5.9,2c-4,1.3-8,2.7-12,4&#10;&#9;&#9;&#9;c-5.4,1.8-9,6.9-8.9,12.6c0.2,6.8,0.3,13.7,0.5,20.4l0.1,4.4h-0.2c-3,0-6,0.7-8.7,2c-3.8,1.7-6.8,4.7-8.6,8.5&#10;&#9;&#9;&#9;c-2.8,5.7-0.4,12.5,5.2,15.3c0,0,0,0,0.1,0c0.7,0.3,1.4,0.6,2.2,0.8c1.7,0.5,3.5,0.8,5.3,0.8c3.7,0,7.3-1.2,10.4-3.3&#10;&#9;&#9;&#9;c4.7-3,7.4-8.2,7.1-13.8c-0.2-5.3-0.3-10.6-0.4-15.8c-0.1-2.7-0.1-5.5-0.2-8.2l0,0c0.2-0.1,0.3-0.3,0.5-0.4&#10;&#9;&#9;&#9;c1.8-0.7,3.8-1.3,5.6-1.9l2.2-0.7l3.1-1l7-2.4l1.9-0.6l3-1l0.4,13.3h-1.2c-4.4,0-8.8,1.5-12.2,4.3c-3,2.3-5,5.7-5.6,9.4&#10;&#9;&#9;&#9;c-0.6,3.8,0.8,7.6,3.8,10.1c2.4,2,5.4,3.2,8.6,3.3h1.4c4.9,0.1,9.6-1.7,13.1-5.1c3.2-2.8,5-6.9,4.9-11.1c-0.2-9.3-0.4-18.7-0.6-28&#10;&#9;&#9;&#9;l-0.3-13.1c0-0.6-0.1-1.3-0.2-1.9c-0.5-3.2-2.9-5.8-6-6.5C431.5,122.4,430.8,122.3,430.1,122.3L430.1,122.3z"/>
	</g>
</g>
<g id="musical-notes-2_music-27">
	<g id="SBwUh1-2-2_music-27">
		<path class="st0_music-27" d="M147.6,238l0.1-0.4c1-4,2.1-8,3.1-12v-0.1c0.3-1.1-0.1-1.7-1.3-1.7c-1.6,0.1-3.2,0.1-4.8,0.2l-6.8,0.3&#10;&#9;&#9;&#9;c-1.8,0.1-3.5,0.1-5.3,0.3c-0.5,0.1-1,0.2-1.5,0.5c-0.5,0.3-0.9,0.8-1,1.4c-1.3,4.9-2.6,9.9-3.9,14.8c-0.5,2.6-2.5,4.8-5.1,5.5&#10;&#9;&#9;&#9;c-2.7,0.9-5.7,0.6-8.1-1c-2.3-1.4-3.1-4.3-1.8-6.7c0.2-0.3,0.4-0.6,0.6-0.8c1.4-1.6,3.2-2.6,5.3-2.9c1.5-0.3,3.1-0.2,4.6,0.2&#10;&#9;&#9;&#9;c0.9,0.2,1.6,0.6,2.3,1.2l0.1-0.5c1.5-5.9,3.1-11.8,4.6-17.6c0.7-2.5,2.8-4.2,5.4-4.4c4-0.1,8-0.3,12-0.5l6.5-0.3&#10;&#9;&#9;&#9;c0.8-0.1,1.5,0.1,2.2,0.4c0.9,0.6,1.5,1.6,1.4,2.7c0,0.3-0.1,0.6-0.2,0.9c-2.2,8.4-4.4,16.8-6.6,25.3c-0.5,2-1.9,3.6-3.7,4.4&#10;&#9;&#9;&#9;c-2.5,1.2-5.3,1.4-7.9,0.4c-1.4-0.5-2.6-1.4-3.5-2.6c-0.9-1.4-1.1-3.1-0.4-4.6c0.7-1.6,2.1-2.9,3.8-3.5c2.4-1,5.1-1.1,7.5-0.1&#10;&#9;&#9;&#9;l1.8,0.9C147.2,237.8,147.4,237.9,147.6,238z"/>
		<path class="st1_music-27" d="M153.2,213.6c0.7,0,1.3,0.1,1.9,0.4c0.9,0.6,1.5,1.6,1.4,2.7c0,0.3-0.1,0.6-0.2,0.9&#10;&#9;&#9;&#9;c-2.2,8.4-4.4,16.8-6.6,25.3c-0.5,2-1.9,3.6-3.7,4.4c-1.3,0.7-2.8,1.1-4.3,1.1c-1.2,0-2.4-0.2-3.5-0.6c-1.4-0.5-2.6-1.4-3.5-2.6&#10;&#9;&#9;&#9;c-0.9-1.4-1.1-3.1-0.4-4.6c0.7-1.6,2.1-2.9,3.8-3.5c1.2-0.5,2.6-0.8,3.9-0.8c1.2,0,2.5,0.2,3.6,0.7l1.8,0.9&#10;&#9;&#9;&#9;c0.1,0.1,0.2,0.1,0.3,0.2l0.1-0.4l3.1-12v-0.1c0.3-1.1-0.1-1.7-1.2-1.7h-0.1c-1.6,0.1-3.2,0.1-4.8,0.2l-6.8,0.3&#10;&#9;&#9;&#9;c-1.8,0.1-3.5,0.1-5.3,0.3c-0.5,0.1-1,0.2-1.5,0.5c-0.5,0.3-0.9,0.8-1,1.4c-1.3,4.9-2.6,9.9-3.9,14.8c-0.5,2.6-2.5,4.8-5.1,5.5&#10;&#9;&#9;&#9;c-1,0.3-2,0.5-3.1,0.5c-1.8,0-3.5-0.5-5-1.5c-2.3-1.3-3.2-4.3-1.8-6.7c0,0,0,0,0,0l0.6-0.9c1.4-1.6,3.2-2.6,5.3-2.9&#10;&#9;&#9;&#9;c1.5-0.3,3.1-0.2,4.6,0.2c0.9,0.2,1.6,0.6,2.3,1.2l0.1-0.5c1.5-5.9,3.1-11.8,4.6-17.6c0.7-2.5,2.8-4.2,5.4-4.4c4-0.1,8-0.3,12-0.5&#10;&#9;&#9;&#9;l6.5-0.3L153.2,213.6 M153.2,209.9h-0.4l-6.5,0.3l-4,0.2l-8,0.3c-4.2,0.2-7.8,3.1-8.9,7.2c-1.1,4.2-2.2,8.4-3.2,12.5l-0.4,1.4&#10;&#9;&#9;&#9;c-0.8-0.2-1.7-0.3-2.6-0.2c-0.8,0-1.6,0.1-2.4,0.2c-2.9,0.4-5.6,1.9-7.5,4.2c-3.2,3.6-2.8,9,0.7,12.2c0.4,0.4,0.8,0.7,1.3,1&#10;&#9;&#9;&#9;c2.1,1.3,4.5,2,7,2c1.4,0,2.9-0.2,4.2-0.7c3.8-1.1,6.8-4.2,7.6-8.1v-0.2c-0.1,1.8,0.4,3.6,1.4,5.1c1.3,1.9,3.2,3.3,5.4,4.1&#10;&#9;&#9;&#9;c1.5,0.5,3.2,0.8,4.8,0.8c2.1,0,4.1-0.5,6-1.4c2.8-1.3,4.9-3.8,5.6-6.8c1.5-5.7,3-11.5,4.5-17.2l2.1-8c0.1-0.5,0.2-0.9,0.3-1.4&#10;&#9;&#9;&#9;c0.3-2.6-0.9-5.1-3.2-6.4C155.9,210.2,154.6,209.8,153.2,209.9L153.2,209.9z M133.7,228.4c1-0.1,2.1-0.1,3.1-0.1l1.5-0.1l2-0.1&#10;&#9;&#9;&#9;l4.7-0.2l1.3-0.1h0.2l-1.3,5.1c-1-0.2-2.1-0.4-3.1-0.4c-1.9,0-3.7,0.4-5.4,1.1c-2.5,1-4.6,2.9-5.7,5.4c0.5-2.1,1.1-4.3,1.7-6.4&#10;&#9;&#9;&#9;C132.9,231.2,133.3,229.8,133.7,228.4L133.7,228.4z"/>
	</g>
	<g id="SBwUh1-2-3_music-27">
		<path class="st0_music-27" d="M118.5,184.9v-0.6l-0.4-19.5v-0.2c0-1.8-1-2.5-2.7-2c-2.4,0.7-4.7,1.6-7.1,2.3l-10.1,3.4&#10;&#9;&#9;&#9;c-2.6,0.9-5.3,1.7-7.9,2.7c-0.7,0.3-1.4,0.8-2,1.3c-0.7,0.7-1,1.6-0.9,2.6c0.2,8,0.3,16.1,0.5,24.1c0.3,4.2-1.8,8.3-5.4,10.5&#10;&#9;&#9;&#9;c-3.7,2.6-8.3,3.3-12.6,2c-4.1-1-6.7-5.2-5.7-9.3c0.1-0.6,0.3-1.1,0.6-1.6c1.4-3,3.8-5.4,6.8-6.7c2.2-1.1,4.6-1.6,7.1-1.6&#10;&#9;&#9;&#9;c1.4,0,2.7,0.2,4,0.8v-0.7c-0.2-9.6-0.4-19.1-0.6-28.7c-0.1-4.1,2.5-7.7,6.3-9c6-1.9,12-3.9,17.9-5.9c3.2-1.1,6.5-2.1,9.7-3.2&#10;&#9;&#9;&#9;c1.1-0.4,2.3-0.5,3.5-0.3c1.7,0.4,2.9,1.8,3.2,3.5c0.1,0.5,0.1,0.9,0.1,1.4l0.9,41.1c0.1,3.2-1.2,6.2-3.7,8.2&#10;&#9;&#9;&#9;c-3.2,2.9-7.5,4.4-11.8,4c-2.3-0.1-4.6-0.9-6.4-2.4c-2-1.6-3-4.2-2.5-6.8c0.4-2.8,1.9-5.3,4.2-7c3.2-2.6,7.2-3.8,11.3-3.4&#10;&#9;&#9;&#9;c1,0.2,2.1,0.4,3.1,0.7L118.5,184.9z"/>
		<path class="st1_music-27" d="M118.3,145.4c0.4,0,0.8,0,1.2,0.2c1.7,0.4,2.9,1.8,3.2,3.5c0.1,0.5,0.1,0.9,0.1,1.4l0.9,41.1&#10;&#9;&#9;&#9;c0.1,3.2-1.2,6.2-3.7,8.2c-2.9,2.7-6.7,4.1-10.6,4.1h-1.1c-2.3-0.1-4.6-0.9-6.4-2.4c-2-1.6-3-4.2-2.5-6.8c0.4-2.8,1.9-5.3,4.2-7&#10;&#9;&#9;&#9;c2.8-2.3,6.3-3.5,9.9-3.5c0.5,0,0.9,0,1.4,0.1c1,0.2,2.1,0.4,3.1,0.7l0.5,0.1v-0.7l-0.4-19.5v-0.2c0-1.4-0.6-2.1-1.6-2.1&#10;&#9;&#9;&#9;c-0.3,0-0.7,0.1-1,0.2c-2.4,0.7-4.7,1.6-7.1,2.3l-10.1,3.4c-2.6,0.9-5.3,1.7-7.9,2.7c-0.7,0.3-1.4,0.8-2,1.3&#10;&#9;&#9;&#9;c-0.7,0.7-1,1.6-0.9,2.6c0.2,8,0.3,16.1,0.5,24.1c0.3,4.2-1.8,8.3-5.4,10.5c-2.5,1.7-5.4,2.6-8.4,2.6c-1.5,0-2.9-0.2-4.3-0.6&#10;&#9;&#9;&#9;c-4.1-0.9-6.7-5-5.8-9.1c0,0,0-0.1,0-0.1c0.1-0.6,0.4-1.2,0.7-1.8c1.4-3,3.8-5.4,6.8-6.7c2.2-1.1,4.6-1.6,7.1-1.6h0.1&#10;&#9;&#9;&#9;c1.3,0,2.7,0.2,3.9,0.8v-0.7c-0.2-9.6-0.4-19.1-0.6-28.7c-0.1-4.1,2.5-7.7,6.3-9c6-1.9,12-3.9,17.9-5.9c3.2-1.1,6.5-2.1,9.7-3.2&#10;&#9;&#9;&#9;C116.7,145.5,117.5,145.4,118.3,145.4 M118.3,141.6c-1.2,0-2.4,0.2-3.5,0.6c-3.3,1-6.5,2.1-9.8,3.2l-5.9,2c-4,1.3-8,2.7-12,4&#10;&#9;&#9;&#9;c-5.4,1.8-9,6.9-8.9,12.6c0.2,6.8,0.3,13.7,0.5,20.4l0.1,4.4h-0.2c-3,0-6,0.7-8.7,2c-3.8,1.7-6.8,4.7-8.6,8.5&#10;&#9;&#9;&#9;c-2.8,5.7-0.4,12.5,5.2,15.3c0,0,0,0,0.1,0c0.7,0.3,1.4,0.6,2.2,0.8c1.7,0.5,3.5,0.8,5.3,0.8c3.7,0,7.3-1.2,10.4-3.3&#10;&#9;&#9;&#9;c4.7-3,7.4-8.2,7.1-13.8c-0.2-5.3-0.3-10.6-0.4-15.8c-0.1-2.7-0.1-5.5-0.2-8.2l0,0c0.2-0.1,0.3-0.3,0.5-0.4&#10;&#9;&#9;&#9;c1.8-0.7,3.8-1.3,5.6-1.9l2.2-0.7l3.1-1l7-2.4l1.9-0.6l3-1l0.4,13.3h-1.2c-4.4,0-8.8,1.5-12.2,4.3c-3,2.3-5,5.7-5.6,9.4&#10;&#9;&#9;&#9;c-0.6,3.8,0.8,7.6,3.8,10.1c2.4,2,5.4,3.2,8.6,3.3h1.4c4.9,0.1,9.6-1.7,13.1-5.1c3.2-2.8,5-6.9,4.9-11.1c-0.2-9.3-0.4-18.7-0.6-28&#10;&#9;&#9;&#9;l-0.3-13.1c0-0.6-0.1-1.3-0.2-1.9c-0.5-3.2-2.9-5.8-6-6.5C119.7,141.7,119,141.6,118.3,141.6L118.3,141.6z"/>
	</g>
</g>
<g id="turn_table_music-27">
	<path class="st1_music-27" d="M411.4,422.4v35.8c0,2.6-0.8,5.1-2.1,7.4l0,0c-1.2,1.9-2.7,3.5-4.6,4.7c-2.2,1.4-4.8,2.1-7.4,2.1H103.8&#10;&#9;&#9;c-2.6,0-5.2-0.7-7.5-2.1c-4.2-2.6-6.7-7.1-6.7-12v-35.8c0.5,0.8,1.1,1.5,1.9,2c0.6,0.4,1.2,0.8,1.9,1.1c2.2,0.9,4.5,1.4,6.8,1.3&#10;&#9;&#9;h300.6c2.3,0,4.7-0.4,6.8-1.3c0.7-0.3,1.3-0.7,1.9-1.1C410.3,423.8,410.9,423.2,411.4,422.4z"/>
	<g id="record-player_music-27">
		<path class="st2_music-27 targetColor" d="M141.6,305h217.9c5.5,0,10.6,2.2,11.6,5l38.6,109.6c1.7,4.9-2.9,9-10.3,9H101.7c-7.4,0-12-4.1-10.3-9&#10;&#9;&#9;&#9;L130,309.9C130.9,307.2,136.1,305,141.6,305z" style="fill: rgb(51, 133, 255);"/>
		<path class="st1_music-27" d="M399.3,430.5H101.7c-5.1,0-9.2-1.7-11.3-4.7c-1.4-2-1.8-4.7-0.9-7l38.6-109.6c1.3-4.1,8-6.3,13.5-6.3h217.9&#10;&#9;&#9;&#9;c5.5,0,12.1,2.2,13.5,6.3l38.6,109.6c0.9,2.3,0.5,5-0.9,7C408.5,428.8,404.4,430.5,399.3,430.5z M141.6,307&#10;&#9;&#9;&#9;c-5.2,0-9.2,2.1-9.7,3.6L93.3,420.2c-0.5,1.1-0.3,2.4,0.4,3.4c1.3,1.8,4.4,3,8,3h297.7c3.7,0,6.7-1.1,8-3c0.7-1,0.9-2.3,0.4-3.4&#10;&#9;&#9;&#9;l-38.5-109.6c-0.5-1.5-4.5-3.7-9.7-3.7L141.6,307z"/>
		<path class="st1_music-27" d="M280.8,410.5c-51.6,11.2-104.8-7.1-114.9-37.3c-8.5-25.1,17.3-49.1,56.3-57l4.5-0.8&#10;&#9;&#9;&#9;c39.6-6.8,84,4.1,102.5,26.5c20.9,25.4,2.3,57.2-46.5,68.2L280.8,410.5z"/>
		<path class="st1_music-27" d="M250.6,414.9c-43.2,0-78.4-17.6-86.4-41.4c-8.6-25.7,17.7-50,57.5-58c1.5-0.3,3-0.6,4.5-0.8&#10;&#9;&#9;&#9;c40.4-6.7,85.4,4.6,103.8,27.5c18.5,23,5.7,51.6-34.6,65.6c-4.6,1.6-9.3,2.9-14,3.9C271.3,413.8,261,414.9,250.6,414.9z&#10;&#9;&#9;&#9; M250.4,314.1c-7.8,0-15.7,0.6-23.4,1.9c-1.5,0.2-3,0.5-4.4,0.8c-40.2,8-66,33.2-54.6,58.9c12.6,28.2,63.5,44.4,112.1,33.6l0,0&#10;&#9;&#9;&#9;c4.6-1,9-2.2,13.4-3.8c43.4-14.9,53.2-46.8,27.5-69.4C305.3,322.3,278.4,314.1,250.4,314.1L250.4,314.1z"/>
		<path class="st2_music-27 targetColor" d="M212.7,350.8l-38.3-7.7c10-12.2,28-21.4,49.4-25.7l13.5,19.5C226.3,339.4,217.3,344.3,212.7,350.8z" style="fill: rgb(51, 133, 255);"/>
		<path class="st1_music-27" d="M212.6,351.7c-0.2,0-0.3,0-0.5,0l-38.3-7.7c-0.3,0-0.6-0.2-0.8-0.4c-0.2-0.2-0.2-0.5,0-0.6&#10;&#9;&#9;&#9;c10.3-12.4,28.6-21.7,50.3-26.1c0.6-0.2,1.3,0,1.8,0.4l0,0l13.6,19.5c0.2,0.2,0.2,0.5,0,0.6c-0.2,0.2-0.5,0.4-0.8,0.5&#10;&#9;&#9;&#9;c-10.7,2.3-19.4,7.1-23.8,13.4c-0.2,0.3-0.5,0.5-0.9,0.5C213.1,351.6,212.9,351.7,212.6,351.7z M176.6,342.6l35.3,7&#10;&#9;&#9;&#9;c4.7-6,13.2-10.7,23.6-13.1l-12.5-18.1C203.1,322.7,186.3,331.3,176.6,342.6z"/>
		<path class="st2_music-27 targetColor" d="M290.9,404.7l-23.1-26c10.3-3.2,17.6-8.7,20.7-15.2l42.9,8.2C326.6,385.4,312.1,397.4,290.9,404.7z" style="fill: rgb(51, 133, 255);"/>
		<path class="st1_music-27" d="M291,405.9c-0.6,0-1.2-0.2-1.7-0.6l-23-26c-0.2-0.3-0.3-0.6-0.1-0.8c0.2-0.3,0.5-0.5,0.8-0.6&#10;&#9;&#9;&#9;c9.9-3.1,17-8.4,19.9-14.5c0.2-0.3,0.4-0.5,0.7-0.6c0.4-0.1,0.8-0.1,1.2,0l42.8,8.2c0.9,0.2,1.5,0.8,1.3,1.3l0,0&#10;&#9;&#9;&#9;c-4.9,13.9-19.6,26.2-41.3,33.6C291.5,405.8,291.2,405.9,291,405.9z M270.1,379.2l21.4,24c19.5-7,33-18.1,37.9-30.6l-39.8-7.7&#10;&#9;&#9;&#9;C286.5,370.8,279.6,375.9,270.1,379.2L270.1,379.2z"/>
		<path class="st2_music-27 targetColor" d="M250.5,338.3c18.1,0,33.4,8.2,34.4,18.9c1,11.2-14.4,20.9-34.4,20.9s-35.4-9.6-34.4-20.9&#10;&#9;&#9;&#9;C217.1,346.5,232.5,338.3,250.5,338.3z" style="fill: rgb(51, 133, 255);"/>
		<path class="st1_music-27" d="M250.4,379.1c-21.1,0-37.2-10.1-36.1-21.9c1-11.2,17.1-19.8,36-19.8s35,8.5,36.1,19.7&#10;&#9;&#9;&#9;c0.9,9.2-8.7,17.7-24.2,20.8l0,0C258.3,378.7,254.4,379.1,250.4,379.1z M250.4,339.2c-17.2,0-31.9,7.9-32.7,18&#10;&#9;&#9;&#9;c-0.9,10.7,13.8,19.8,32.7,19.8s33.6-9.1,32.7-19.8c-0.2-2.1-0.9-4.1-2.1-5.8C276.2,344,263.9,339.2,250.4,339.2L250.4,339.2z"/>
		<path class="st1_music-27" d="M250.5,372.7c-14.9,0-26.5-7.1-25.9-15.5c0.5-8.1,12.1-14.4,25.9-14.4c13.8,0,25.4,6.3,25.9,14.4&#10;&#9;&#9;&#9;c0.4,6.6-6.6,12.6-17.5,14.7C256.2,372.4,253.3,372.7,250.5,372.7z M250.5,344.6c-12.1,0-22.3,5.5-22.7,12.6&#10;&#9;&#9;&#9;c-0.4,7.4,9.7,13.5,22.6,13.5s23.1-6.1,22.7-13.5c-0.1-1.4-0.5-2.8-1.3-4C268.6,348,260,344.6,250.5,344.6L250.5,344.6z"/>
		<path class="st1_music-27" d="M243.2,356.5c0.7-2.3,4.5-3.9,8.5-3.5s6.8,2.5,6.2,4.9s-4.4,4-8.5,3.6S242.5,358.8,243.2,356.5z"/>
		<path class="st1_music-27" d="M250.5,362.5c-3.9,0-7.4-1.5-8.6-3.6c-1.5-2.7,1.1-5.6,5.9-6.5s9.7,0.6,11.3,3.3s-0.9,5.7-5.7,6.6&#10;&#9;&#9;&#9;C252.4,362.4,251.5,362.5,250.5,362.5z M250.5,353.9c-3.2,0-5.8,1.5-5.8,3.4c0,1.2,1.2,2.4,3.2,3c1.4,0.4,3,0.5,4.4,0.2l0,0&#10;&#9;&#9;&#9;c3-0.6,4.7-2.5,3.7-4.2C255.2,354.8,253,353.9,250.5,353.9L250.5,353.9z"/>
		<path class="st1_music-27" d="M372.4,414.9c-0.9,0.1-1.8-0.4-2.2-1.2l-11.2-42c-0.1-0.5,0.4-1,1.4-1s1.8,0.4,2,1l11.6,42&#10;&#9;&#9;&#9;C374.1,414.4,373.4,414.9,372.4,414.9z"/>
		<path class="st3_music-27" d="M158.2,311.8c6.9,0,11.9,2.9,11.1,6.5s-7.4,6.8-14.6,6.8s-12.1-3.1-11-6.8S151.3,311.8,158.2,311.8z"/>
		<path class="st1_music-27" d="M154.4,325.9c-8,0-13.6-3.4-12.3-7.5s8.5-7.3,16.2-7.3s13.3,3.2,12.4,7.2l0,0&#10;&#9;&#9;&#9;C169.7,322.5,162.4,325.9,154.4,325.9z M158,312.5c-6.2,0-11.9,2.5-12.9,5.8s3.3,6,9.7,6s12.2-2.7,13-6S164.2,312.5,158,312.5z"/>
		<path class="st0_music-27" d="M175.9,371.3c-0.4,0-0.7,0-1.1-0.1L151,365c-5.6-1.5-8.5-4.8-7.5-8.5l10.5-38.2c0.2-0.7,1.5-1.3,2.9-1.3&#10;&#9;&#9;&#9;s2.4,0.6,2.2,1.3l-9.9,38.1c-0.6,2.4,1.3,4.5,4.9,5.4l23.7,6.1c1.4,0.4,2,1.4,1.2,2.3C178.1,370.9,177,371.3,175.9,371.3&#10;&#9;&#9;&#9;L175.9,371.3z"/>
		<path class="st1_music-27" d="M156.8,317c1.4,0,2.4,0.6,2.2,1.3l-9.9,38.1c-0.6,2.4,1.3,4.5,4.9,5.4l23.7,6.1c1.4,0.4,2,1.4,1.2,2.3&#10;&#9;&#9;&#9;c-0.8,0.8-1.9,1.2-3,1.1c-0.3,0-0.7-0.1-1-0.1L151,365c-5.6-1.5-8.5-4.8-7.5-8.5l10.5-38.2C154.1,317.6,155.4,317,156.8,317&#10;&#9;&#9;&#9;L156.8,317z M157.2,315.5c-3,0-5.8,1.2-6.2,2.8l-10.8,38.2c-1.3,4.5,2.2,8.6,9.1,10.3l23.9,6.2c3.1,0.8,6.9-0.1,8.6-2&#10;&#9;&#9;&#9;s0.5-4.1-2.5-4.9l-23.6-6c-2.4-0.6-3.7-2.1-3.4-3.6l9.7-38.2C162.3,316.8,160.2,315.5,157.2,315.5L157.2,315.5z"/>
		<path class="st4_music-27" d="M177.9,365.9l17.7,4.7c1.6,0.4,2.2,1.6,1.4,2.6l-2.8,3.2c-1.3,1.1-3,1.5-4.6,1l-17.9-4.9&#10;&#9;&#9;&#9;c-1.6-0.4-2.1-1.6-1.2-2.6l2.9-3.1C174.6,365.9,176.3,365.5,177.9,365.9z"/>
		<path class="st1_music-27" d="M189.3,378.3c-1.1,0-2.1-0.1-3.1-0.4l-12.8-3.6c-3.9-1-5.3-3.7-3.2-6.1s6.8-3.5,10.6-2.6c0.2,0,0.2,0,0.4,0.1&#10;&#9;&#9;&#9;l12.6,3.4c3.9,1.1,5.3,3.8,3.2,6.2C195.4,377.1,192.5,378.2,189.3,378.3L189.3,378.3z M177.8,367.3c-0.6,0-1.2,0.1-1.7,0.2&#10;&#9;&#9;&#9;c-2.4,0.5-3.9,2.1-3.2,3.5c0.5,0.8,1.2,1.3,2.1,1.5l12.7,3.5c2.3,0.5,5-0.2,6.1-1.6s0.2-2.8-1.8-3.4l-12.6-3.4&#10;&#9;&#9;&#9;C178.9,367.4,178.4,367.3,177.8,367.3L177.8,367.3z"/>
		<path class="st4_music-27" d="M356,391.6h22.6c1.6,0,3.3,0.8,3.6,1.9l1.4,4.6c0.3,1-0.7,2-2.5,2h-23c-1.6,0-3.3-0.9-3.5-2l-1.1-4.6&#10;&#9;&#9;&#9;C353.2,392.5,354.4,391.6,356,391.6z"/>
		<path class="st1_music-27" d="M378.7,401.2H361c-4.1,0-8-2.1-8.6-4.8l0,0l-0.3-1.3c-0.6-2.6,2.2-4.6,6.2-4.6h17.2c4,0,8,2.1,8.8,4.6&#10;&#9;&#9;&#9;l0.4,1.3C385.5,399.1,382.8,401.2,378.7,401.2L378.7,401.2z M358.9,392.8c-2.1,0-3.5,1-3.2,2.3v0.1l0.3,1.3&#10;&#9;&#9;&#9;c0.3,1.3,2.3,2.4,4.4,2.4H378c2.1,0,3.5-1.1,3.1-2.4l-0.4-1.3c-0.4-1.3-2.4-2.4-4.5-2.4H358.9z"/>
		<path class="st1_music-27" d="M348.9,313.4c2.3,0,4.5,1,4.9,2.2s-1.3,2.2-3.6,2.2s-4.5-1-4.9-2.2S346.6,313.4,348.9,313.4z"/>
		<path class="st1_music-27" d="M350.4,318.5c-3.2,0-6-1.3-6.5-2.9s1.8-2.9,4.8-2.9s6,1.3,6.4,2.9l0,0C355.7,317.2,353.6,318.5,350.4,318.5z&#10;&#9;&#9;&#9; M349.1,314.1c-1.5,0-2.6,0.6-2.4,1.4s1.6,1.4,3.2,1.4s2.6-0.6,2.4-1.4l0,0C352.1,314.8,350.7,314.1,349.1,314.1z"/>
		<path class="st1_music-27" d="M128.3,403.2c2.9,0,4.9,1.5,4.4,3.5s-3.4,3.5-6.3,3.5s-4.9-1.6-4.4-3.5S125.4,403.2,128.3,403.2z"/>
		<path class="st1_music-27" d="M126,411.3c-4,0-6.5-2.1-5.8-4.7s4.5-4.6,8.4-4.6c3.9,0,6.5,2,5.8,4.6l0,0C133.8,409.2,130.1,411.3,126,411.3&#10;&#9;&#9;&#9;z M128,404.4c-1.9,0-3.8,1-4.1,2.3s0.9,2.3,2.9,2.3c2,0,3.8-1,4.1-2.3l0,0C131.2,405.4,129.9,404.4,128,404.4z"/>
	</g>
</g>
<g id="character_music-27">
	<path class="st2_music-27 targetColor" d="M226.3,214.3h41.2c22.1,0,40,17.9,40,39.9l0,0v50.7l0,0H186.3l0,0v-50.7C186.3,232.1,204.2,214.3,226.3,214.3z&#10;&#9;&#9;" style="fill: rgb(51, 133, 255);"/>
	<path class="st1_music-27" d="M309.4,306.9h-125v-52.7c0-23.1,18.8-41.9,41.9-41.9h41.2c23.1,0,41.9,18.8,41.9,41.9L309.4,306.9z M188.3,303&#10;&#9;&#9;h117.2v-48.8c0-21-17-38-38-38h-41.2c-21,0-38,17-38,38L188.3,303z"/>
	<rect x="228.5" y="214.3" class="st1_music-27" width="44.7" height="90.7"/>
	<g id="character-2_music-27">
		<path class="st1_music-27" d="M177.2,146.6c0,0-19.1-21.7-12.1-34.6s21.8-8.7,21.8-8.7s-19.1,11.3,6.9,32.9"/>
		<path class="st4_music-27" d="M178.2,142c0,0-15.3-17.3-9.7-27.6s13.1-8.1,13.1-8.1s-13.6,12.5,7.1,29.8"/>
		<path class="st5_music-27" d="M249,47.5L249,47.5c36.5,0,66.1,29.6,66.1,66.1l0,0v44.1l0,0H182.9l0,0v-44.1C182.8,77.1,212.4,47.5,249,47.5&#10;&#9;&#9;&#9;C249,47.5,249,47.5,249,47.5z"/>
		<path class="st6_music-27" d="M338.2,177.6c-1.6-5.9-1-12-1.4-18.1s-2-12.5-6.8-16.2c-0.3-0.3-0.8-0.5-1.2-0.5c-0.4,0-0.8,0.2-1.1,0.5&#10;&#9;&#9;&#9;c-3.9,2.5-7.2,5.7-9.7,9.6c-2.5,3.9-3.4,8.6-2.7,13.1c0.1,0.2,0.1,0.5,0,0.8c-0.1,0.4-0.7,0.6-1.1,0.7c-1.8,0.6-3.4,1.8-4.5,3.4&#10;&#9;&#9;&#9;c-0.4,0.6-0.7,1.3-0.6,2.1c0.2,1.3,1.6,2.1,2.9,2.3c1.3,0.1,2.6,0.2,3.9,0.5c1.2,0.5,2.2,1.2,3.1,2.2l6.2,5.8"/>
		<path class="st1_music-27" d="M325.1,185.7c-0.5,0-1-0.2-1.4-0.5l-6.2-5.8c-0.7-0.7-1.5-1.3-2.4-1.7c-0.6-0.2-1.2-0.2-1.8-0.2&#10;&#9;&#9;&#9;c-0.6,0-1.2-0.1-1.7-0.2c-2-0.3-4.2-1.7-4.5-4c-0.1-1.2,0.2-2.4,1-3.4c1.2-1.9,3.1-3.3,5.2-4.1c-0.7-4.8,0.4-9.7,3-13.9&#10;&#9;&#9;&#9;c2.6-4.1,6.1-7.6,10.2-10.2c0.6-0.5,1.4-0.8,2.2-0.8c0.9,0,1.8,0.4,2.5,1c4.5,3.5,7.1,9.5,7.6,17.7c0.1,1.9,0.1,3.9,0.2,5.7&#10;&#9;&#9;&#9;c0,4.2,0.1,8.2,1.1,12c0.2,1.1-0.4,2.1-1.5,2.4c-1,0.2-2-0.4-2.3-1.4c-1.1-4.3-1.2-8.7-1.3-13c0-1.8,0-3.7-0.1-5.5&#10;&#9;&#9;&#9;c-0.4-7-2.5-12-6.1-14.8l0,0c-3.6,2.3-6.7,5.4-9.1,9c-2.2,3.5-3.1,7.6-2.4,11.7c0.2,0.6,0.1,1.2,0,1.8c-0.4,1-1.3,1.8-2.4,2&#10;&#9;&#9;&#9;c-1.4,0.4-2.6,1.3-3.4,2.5c-0.3,0.5-0.3,0.7-0.3,0.7c0.3,0.3,0.7,0.5,1.2,0.6c0.4,0.1,0.9,0.1,1.3,0.1c2.6-0.1,5.1,1.1,6.7,3.1&#10;&#9;&#9;&#9;l6.2,5.8c0.8,0.8,0.8,2,0.1,2.8C326.1,185.5,325.6,185.7,325.1,185.7L325.1,185.7z"/>
		<path class="st1_music-27" d="M315.1,159.4H182.9c-1,0-1.8-0.8-1.8-1.8l0,0v-44c0-37.5,30.4-67.9,67.9-67.9s67.9,30.4,67.9,67.9v44.1&#10;&#9;&#9;&#9;C316.8,158.7,316,159.4,315.1,159.4z M184.6,155.8h128.6v-42.2c0.4-35.5-28-64.7-63.5-65.1s-64.7,28-65.1,63.5c0,0.5,0,1.1,0,1.6&#10;&#9;&#9;&#9;L184.6,155.8z"/>
		<path class="st6_music-27" d="M241.5,202h19.2l0,0v14.7c0,2.5-2,4.5-4.5,4.5H246c-2.5,0-4.5-2-4.5-4.5L241.5,202L241.5,202z"/>
		<path class="st1_music-27" d="M252.5,223h-2.9c-5.5,0-9.9-4.5-9.9-9.9V202c0-1,0.8-1.8,1.8-1.8l0,0h19.2c1,0,1.8,0.8,1.8,1.8c0,0,0,0,0,0&#10;&#9;&#9;&#9;v11C262.5,218.5,258,223,252.5,223z M243.3,203.8v9.2c0,3.5,2.8,6.4,6.4,6.4h2.9c3.5,0,6.3-2.9,6.3-6.4v-9.2H243.3z"/>
		<ellipse class="st6_music-27" cx="196.2" cy="152.2" rx="18.6" ry="16.1"/>
		<path class="st4_music-27" d="M192.2,170.1c-11.3,0-20.4-9.5-20.4-21.1s9.2-21.1,20.4-21.1s20.4,9.5,20.4,21.1S203.5,170.1,192.2,170.1z"/>
		<ellipse class="st4_music-27" cx="310" cy="148.7" rx="18.6" ry="19.2"/>
		<path class="st1_music-27" d="M310,170.1c-11.3,0-20.5-9.6-20.5-21.4s9.2-21.3,20.5-21.3s20.5,9.6,20.5,21.3S321.3,170.1,310,170.1z&#10;&#9;&#9;&#9; M310,131.7c-9.4-0.1-17.1,7.5-17.1,16.8c-0.1,9.4,7.5,17.1,16.8,17.1s17.1-7.5,17.1-16.8c0,0,0-0.1,0-0.1&#10;&#9;&#9;&#9;C326.9,139.3,319.3,131.7,310,131.7z"/>
		<path class="st1_music-27" d="M190.8,170.1c-11.3,0-20.4-9.5-20.4-21.1s9.2-21.1,20.4-21.1s20.4,9.5,20.4,21.1S202.1,170.1,190.8,170.1z&#10;&#9;&#9;&#9; M190.8,132.1c-9.3,0-16.9,7.5-16.9,16.8c0,9.3,7.5,16.9,16.8,16.9c9.3,0,16.9-7.5,16.9-16.8c0,0,0,0,0,0&#10;&#9;&#9;&#9;C207.6,139.6,200.1,132.1,190.8,132.1L190.8,132.1z"/>
		<path class="st6_music-27" d="M251.1,204.6L251.1,204.6c-31.1,0-56.2-25.2-56.2-56.2l0,0v-26c0-13.5,20.6-38.8,34.1-38.8&#10;&#9;&#9;&#9;c0,0,2.2,12.8,23.4,24c14.9,7.8,35.8,8.3,54.9-4.9v45.8C307.3,179.4,282.1,204.6,251.1,204.6z"/>
		<path class="st1_music-27" d="M251.1,206.4c-32,0-58-26-58.1-58v-26c0-14.3,21.1-40.6,36-40.6c0.9,0,1.6,0.6,1.8,1.5&#10;&#9;&#9;&#9;c0,0.1,2.4,12.1,22.5,22.7c12.7,6.7,33.3,8.9,53-4.8c0.8-0.6,1.9-0.4,2.5,0.4c0.2,0.3,0.3,0.7,0.3,1v45.8&#10;&#9;&#9;&#9;C309.1,180.4,283.1,206.3,251.1,206.4z M227.6,85.4c-11.2,1.7-31,22.9-31,36.8v26c0,30.1,24.4,54.4,54.5,54.4&#10;&#9;&#9;&#9;c30.1,0,54.4-24.4,54.4-54.4v-42.4c-20.2,12.6-40.9,10-53.9,3.2C234,99.8,229,89.3,227.6,85.4z"/>
		<circle class="st1_music-27" cx="225.1" cy="140.1" r="5.2"/>
		<circle class="st1_music-27" cx="278.8" cy="140.1" r="5.2"/>
		<path class="st0_music-27" d="M271.6,165.3c-0.5,11.3-10.1,20.1-21.4,19.6c-10.6-0.5-19.1-9-19.6-19.6H271.6z"/>
		<path class="st1_music-27" d="M251.1,187.6c-12.3,0-22.3-10-22.3-22.3c0-1,0.8-1.8,1.8-1.8c0,0,0,0,0,0h41c1,0,1.8,0.8,1.8,1.8&#10;&#9;&#9;&#9;C273.4,177.6,263.4,187.5,251.1,187.6z M232.4,167.1c1,10.3,10.1,17.8,20.4,16.9c8.9-0.9,16-7.9,16.9-16.9H232.4z"/>
		<path class="st1_music-27" d="M250.8,159.4c-1.7,0-3.4-0.1-5.1-0.4c-1-0.1-1.7-1-1.6-2c0.1-1,1-1.7,2-1.6c0.1,0,0.1,0,0.2,0&#10;&#9;&#9;&#9;c2.5,0.4,5,0.5,7.5,0.1c0.2-1.6-1.8-7-4.4-12.1c-0.4-0.9,0-2,0.9-2.4c0.8-0.4,1.8-0.1,2.3,0.7c1.8,3.5,5.9,12.1,4.4,15.5&#10;&#9;&#9;&#9;c-0.4,0.8-1.1,1.5-2,1.7C253.7,159.3,252.3,159.5,250.8,159.4z"/>
		<path class="st1_music-27" d="M210.9,127.8c-2-0.1-3.5-1.8-3.4-3.8c0.1-1.8,1.6-3.3,3.4-3.4l24.8-0.3h0.1c2,0.1,3.5,1.8,3.4,3.8&#10;&#9;&#9;&#9;c-0.1,1.8-1.6,3.3-3.4,3.4L210.9,127.8L210.9,127.8z"/>
		<path class="st1_music-27" d="M293.6,127.4L293.6,127.4l-24.8-0.2c-2,0-3.6-1.6-3.6-3.6c0-2,1.6-3.6,3.6-3.6l0,0l24.8,0.2&#10;&#9;&#9;&#9;c2,0.1,3.5,1.8,3.4,3.8C296.9,125.8,295.4,127.3,293.6,127.4z"/>
	</g>
	<path class="st2_music-27 targetColor" d="M244.3,36.6h9.4c33.9,0,61.4,27.5,61.4,61.4l0,0l0,0H182.9l0,0l0,0C182.9,64.1,210.3,36.6,244.3,36.6&#10;&#9;&#9;L244.3,36.6z" style="fill: rgb(51, 133, 255);"/>
	<path class="st1_music-27" d="M317.1,100H180.9v-2c0-35,28.4-63.4,63.4-63.4h9.4c35,0,63.4,28.4,63.4,63.4V100z M184.9,96H313&#10;&#9;&#9;c-1.1-32-27.4-57.4-59.4-57.4h-9.4C212.2,38.6,186,64,184.9,96z"/>
	<path class="st2_music-27 targetColor" d="M315.1,98h-90.7c16.5-20.4,48.8-37,72.1-37h6.4C326.1,61,331.6,77.6,315.1,98L315.1,98z" style="fill: rgb(51, 133, 255);"/>
	<path class="st1_music-27" d="M316,100h-95.8l2.6-3.3C239.6,76,272.7,59,296.4,59h6.4c11.1,0,19,3.7,22.2,10.4c3.7,7.8,0.6,18.6-8.5,29.8&#10;&#9;&#9;L316,100z M228.7,96h85.4c7.6-9.7,10.3-18.7,7.4-24.9c-2.4-5.2-9.1-8.1-18.6-8.1h-6.4C275,63,245.5,77.5,228.7,96L228.7,96z"/>
	<path class="st1_music-27" d="M224.4,156.7c-12.2,0-22.1-9.9-22.1-22.1c0-3.7,0.9-6.4,2.8-8.2c3.2-3.1,8.5-3,14.5-2.8c3.1,0.1,6.5,0.1,9.5,0&#10;&#9;&#9;c6.1-0.2,11.3-0.3,14.5,2.8c1.9,1.8,2.8,4.5,2.8,8.2C246.4,146.8,236.6,156.7,224.4,156.7z M215.5,127.6c-3.4,0-6.2,0.3-7.6,1.7&#10;&#9;&#9;c-1.1,1-1.6,2.8-1.6,5.3c0,10,8.1,18.1,18.1,18.1s18.1-8.1,18.1-18.1c0,0,0,0,0,0c0-2.5-0.5-4.3-1.6-5.3c-2-1.9-6.4-1.8-11.6-1.6&#10;&#9;&#9;c-3.1,0.1-6.6,0.1-9.8,0C218.1,127.6,216.8,127.6,215.5,127.6z"/>
	<path class="st1_music-27" d="M278.8,156.7c-12.2,0-22.1-9.9-22.1-22.1c0-3.7,0.9-6.4,2.8-8.2c3.2-3.1,8.5-3,14.5-2.8c3.1,0.1,6.5,0.1,9.5,0&#10;&#9;&#9;c6.1-0.2,11.3-0.3,14.5,2.8c1.9,1.8,2.8,4.5,2.8,8.2C300.8,146.8,291,156.7,278.8,156.7z M269.9,127.6c-3.4,0-6.2,0.3-7.6,1.7&#10;&#9;&#9;c-1,1-1.6,2.8-1.6,5.3c0.2,10,8.5,17.9,18.5,17.6c9.7-0.2,17.4-8,17.6-17.6c0-2.5-0.5-4.3-1.6-5.3c-2-1.9-6.5-1.8-11.6-1.6&#10;&#9;&#9;c-3.1,0.1-6.6,0.1-9.8,0C272.5,127.6,271.1,127.6,269.9,127.6L269.9,127.6z"/>
	<path class="st1_music-27" d="M258.9,133.9h-14.7c-1.1,0-2-0.9-2-2s0.9-2,2-2h14.7c1.1,0,2,0.9,2,2S260,133.9,258.9,133.9z"/>
	<path class="st6_music-27" d="M268.1,311.1l6.2,1.4c2.2,0.5,5.1,0.9,7.1,2c2.2,1.3,4,3.6,5.6,5.6c2.4,2.9,4.8,5.8,7.1,8.8&#10;&#9;&#9;c1.8,2.2,7.7,9.5,1.8,10.8c0.2,1.1,0.1,2.2-0.2,3.3c-0.3,1.1-1.3,1.9-2.4,2c-1.3,0-2.3-1-3.1-2c-0.3,0.9-1.1,1.4-2,1.5&#10;&#9;&#9;c-0.9,0.1-1.8-0.1-2.6-0.5c-0.2,0.7-0.8,1.2-1.6,1.4c-0.7,0.2-1.5,0.1-2.2-0.1c-3.6-0.9-6.2-2.9-8.7-5.6l-8.5-9.3&#10;&#9;&#9;c-2.5-2.7-5.4-4.4-8.5-6.5"/>
	<path class="st1_music-27" d="M283.2,347.5c-0.6,0-1.2-0.1-1.8-0.2c-3.8-1-7.1-3.2-9.6-6.2l-8.5-9.3c-2-2-4.2-3.8-6.7-5.2l-1.4-0.9&#10;&#9;&#9;c-0.9-0.6-1.2-1.9-0.6-2.8s1.9-1.2,2.8-0.6l0,0l1.4,0.9c2.7,1.6,5.2,3.6,7.4,5.9l8.5,9.3c2.6,2.9,4.9,4.3,7.7,5.1&#10;&#9;&#9;c0.4,0.1,0.8,0.2,1.2,0.1c0.1,0,0.1,0,0.2-0.1c0.3-1,1.3-1.6,2.4-1.3c0.1,0,0.2,0.1,0.3,0.1c0.5,0.2,1.1,0.4,1.6,0.4&#10;&#9;&#9;c0.1,0,0.3-0.1,0.4-0.2c0.2-0.7,0.8-1.2,1.5-1.4c0.7-0.1,1.5,0.1,1.9,0.7c0.9,1,1.3,1.3,1.5,1.3c0.3-0.1,0.5-0.4,0.6-0.7&#10;&#9;&#9;c0.2-0.8,0.2-1.6,0.1-2.5c-0.1-1,0.6-2,1.6-2.2c0.5-0.1,0.9-0.3,1-0.5c0.1-0.4,0.2-2-3.8-7c-2.4-3-4.8-5.9-7.1-8.8l-0.5-0.7&#10;&#9;&#9;c-1.2-1.7-2.7-3.2-4.5-4.4c-1.6-0.7-3.3-1.2-5.1-1.5l-1.4-0.3l-6.2-1.4c-1.1-0.2-1.8-1.2-1.7-2.3c0.2-1.1,1.2-1.8,2.3-1.7&#10;&#9;&#9;c0.1,0,0.1,0,0.2,0l6.2,1.4c0.4,0.1,0.9,0.2,1.4,0.3c2.2,0.3,4.3,1,6.3,1.9c2.2,1.4,4.1,3.3,5.6,5.4l0.5,0.6&#10;&#9;&#9;c2.4,2.9,4.8,5.8,7.1,8.8c2.9,3.6,5.7,7.7,4.5,10.9c-0.4,1.1-1.2,2-2.2,2.5c0,0.9-0.1,1.8-0.4,2.6c-0.6,1.9-2.3,3.2-4.2,3.4&#10;&#9;&#9;c-1.1,0-2.2-0.4-3.1-1.1c-0.6,0.3-1.2,0.5-1.8,0.6c-0.7,0.1-1.4,0-2-0.1c-0.5,0.5-1.2,0.8-1.8,1&#10;&#9;&#9;C284.1,347.5,283.7,347.5,283.2,347.5z"/>
	<line class="st7_music-27" x1="284.9" y1="342.5" x2="280.5" y2="336.4"/>
	<path class="st1_music-27" d="M284.9,344.5c-0.6,0-1.2-0.3-1.6-0.8l-4.4-6c-0.7-0.9-0.5-2.1,0.4-2.8c0.9-0.7,2.1-0.5,2.8,0.4l0,0l4.4,6&#10;&#9;&#9;c0.6,0.9,0.4,2.1-0.5,2.8C285.8,344.4,285.3,344.5,284.9,344.5L284.9,344.5z"/>
	<line class="st7_music-27" x1="290.5" y1="341.4" x2="286.1" y2="335.3"/>
	<path class="st1_music-27" d="M290.5,343.4c-0.6,0-1.2-0.3-1.6-0.8l-4.4-6c-0.7-0.9-0.6-2.1,0.3-2.8c0.9-0.7,2.1-0.6,2.8,0.3&#10;&#9;&#9;c0,0.1,0.1,0.1,0.1,0.2l4.4,6c0.7,0.9,0.5,2.1-0.4,2.8C291.4,343.2,291,343.3,290.5,343.4L290.5,343.4z"/>
	<line class="st7_music-27" x1="295" y1="337.9" x2="290.5" y2="331.8"/>
	<path class="st1_music-27" d="M295,339.9c-0.6,0-1.2-0.3-1.6-0.8l-4.4-6c-0.7-0.9-0.5-2.1,0.4-2.8c0.9-0.7,2.1-0.5,2.8,0.4l4.4,6&#10;&#9;&#9;c0.7,0.9,0.5,2.1-0.4,2.8C295.8,339.8,295.4,339.9,295,339.9L295,339.9z"/>
	<path class="st2_music-27 targetColor" d="M193,268.8c2,9.3,5.2,18.5,8.3,27.5c3.2,9.2,8.6,14,17.6,17.7c12.5,5.2,24.8,10.8,36.9,16.8&#10;&#9;&#9;c2.7-1.9,16.1-19,17.5-21.4c-10.8-7.4-39.7-22.9-41.5-25.6s-1.9-6.2-2.7-9.4c-1-4-2.3-8-3.4-12c-2.2-8-4.3-16-6.4-24" style="fill: rgb(51, 133, 255);"/>
	<path class="st1_music-27" d="M256,333l-1.1-0.5c-12-6-24.4-11.6-36.8-16.7c-10.1-4.2-15.6-9.7-18.8-18.9l-0.5-1.4c-2.9-8.5-6-17.3-7.9-26.3&#10;&#9;&#9;c-0.3-1.1,0.4-2.2,1.4-2.4c1.1-0.3,2.2,0.4,2.4,1.4c0,0.1,0,0.1,0,0.2c1.8,8.7,4.8,17.4,7.7,25.8l0.5,1.4&#10;&#9;&#9;c2.8,8.1,7.4,12.8,16.5,16.5c12.1,5,24.1,10.5,35.8,16.2c3.2-3.2,11.9-14.1,15.1-18.5c-4.9-3.2-12.3-7.5-19.5-11.7&#10;&#9;&#9;c-13.9-8.1-19.7-11.6-20.9-13.3c-1.3-2.2-2.2-4.7-2.4-7.3c-0.2-1-0.3-1.8-0.5-2.7c-0.6-2.4-1.3-4.8-2-7.1c-0.5-1.6-0.9-3.2-1.4-4.9&#10;&#9;&#9;c-1-3.8-2.1-7.6-3.1-11.4c-1.1-4.2-2.2-8.4-3.4-12.6c-0.3-1.1,0.3-2.2,1.4-2.5c1.1-0.3,2.2,0.3,2.5,1.4c1.1,4.2,2.3,8.4,3.4,12.6&#10;&#9;&#9;c1,3.8,2,7.6,3.1,11.4c0.4,1.6,0.9,3.2,1.4,4.8c0.7,2.4,1.4,4.8,2,7.2c0.2,1,0.4,2,0.6,3c0.2,2,0.8,4,1.8,5.8&#10;&#9;&#9;c1.1,1.3,11.4,7.3,19.6,12.1s16.5,9.6,21.4,13l1.5,1.1l-1,1.6c-1.5,2.5-15,19.9-18.1,22L256,333z"/>
	<path class="st2_music-27 targetColor" d="M277.3,215.5l51-0.1c1.5,0,2.8-1.3,2.8-2.8c0-0.3-0.1-0.6-0.2-0.9l-9.2-25.9l22.1-8.8c0,0,21.9,43.5,21.5,57.2&#10;&#9;&#9;S302.1,254,302.1,254" style="fill: rgb(51, 133, 255);"/>
	<path class="st1_music-27" d="M302.1,255.9c-1.1,0.1-2-0.8-2.1-1.9s0.8-2,1.9-2.1c25.4-2.4,61.2-9.5,61.5-17.8c0.3-11.6-16.5-46.6-20.5-54.6&#10;&#9;&#9;l-18.5,7.4l8.6,24.1c0.9,2.5-0.4,5.2-2.9,6.1c-0.5,0.2-1.1,0.3-1.6,0.3l-51,0.1l0,0c-1.1,0-2-0.9-2-2s0.9-2,2-2l51-0.1&#10;&#9;&#9;c0.3,0,0.5-0.1,0.7-0.3c0.2-0.2,0.2-0.5,0.1-0.7l-9.9-27.7l25.5-10.2l0.8,1.6c0.9,1.8,22.1,44.1,21.7,58.2&#10;&#9;&#9;c-0.2,6.9-11.1,12.4-33.4,16.9c-15.7,3.2-31.5,4.7-31.7,4.7L302.1,255.9z"/>
</g>
</svg>